<svg width="152" height="56" viewBox="0 0 152 56" fill="none" xmlns="http://www.w3.org/2000/svg">
<path d="M19.4457 37.9054H13.1202V55.4146H6.67896V37.9054H0.353516V32.127H19.4457V37.9054Z" fill="white"/>
<path d="M22.3086 32.127H28.8078V55.4082H22.3086V32.127Z" fill="white"/>
<path d="M56.7961 42.9699C56.7961 50.5887 51.822 56.0004 44.5314 56.0004C37.2407 56.0004 32.125 50.8718 32.125 43.7871C32.125 36.7023 37.2986 31.5352 44.4734 31.5352C50.5737 31.5352 55.5671 35.351 56.5516 40.7627H49.8272C48.9843 38.8001 46.8994 37.5389 44.5249 37.5389C41.0372 37.5389 38.6885 40.0613 38.6885 43.7806C38.6885 47.5 40.9986 49.9838 44.5249 49.9838C46.9702 49.9838 49.0743 48.7998 49.8015 47.0045H44.0166V42.957H56.7833L56.7961 42.9699Z" fill="white"/>
<path d="M75.2091 49.8485V55.4146H60.0293V32.127H74.9259V37.6738H66.4127V41.1035H74.0572V46.3672H66.4127V49.8549H75.2091V49.8485Z" fill="white"/>
<path d="M87.6297 48.2913H85.3003V55.4146H78.8848V32.127H88.9746C93.9938 32.127 97.6359 35.4988 97.6359 40.3635C97.6359 43.2206 96.2395 45.5629 93.9423 46.9399L98.5625 55.4082H91.4005L87.6233 48.2848H87.6297V48.2913ZM85.3003 42.886H88.2281C90.0235 42.886 91.053 41.8049 91.053 40.3507C91.053 38.8964 90.0235 37.8282 88.2281 37.8282H85.3003V42.886Z" fill="white"/>
<path d="M119.694 46.7645C119.694 52.1634 116.168 55.9985 111.001 55.9985C105.834 55.9985 102.211 52.3629 102.211 47.3437C102.211 42.3245 105.879 38.6631 110.962 38.6631C115.287 38.6631 118.826 41.3657 119.521 45.2073H114.759C114.16 43.8174 112.687 42.9229 111.001 42.9229C108.53 42.9229 106.863 44.7118 106.863 47.3501C106.863 49.9884 108.504 51.7451 111.001 51.7451C112.738 51.7451 114.225 50.9021 114.74 49.6345H110.641V46.771H119.694V46.7645Z" fill="white"/>
<path d="M137.187 47.3176C137.187 52.1309 133.648 55.58 128.668 55.58H121.988V39.0811H128.668C133.661 39.0811 137.187 42.498 137.187 47.3176ZM132.529 47.3176C132.529 44.8724 130.901 43.2444 128.455 43.2444H126.557V51.4166H128.455C130.901 51.4166 132.529 49.75 132.529 47.3176Z" fill="white"/>
<path d="M138.746 50.2597H143.437C143.437 51.4373 144.344 52.01 145.38 52.01C146.333 52.01 147.24 51.5016 147.24 50.6007C147.24 49.5647 145.953 49.2623 144.383 48.8826C141.996 48.2906 138.952 47.5571 138.952 43.8055C138.952 40.556 141.339 38.6963 145.232 38.6963C149.125 38.6963 151.455 40.7297 151.455 44.0822H146.899C146.899 43.0398 146.12 42.5508 145.181 42.5508C144.37 42.5508 143.592 42.8982 143.592 43.6704C143.592 44.6099 144.833 44.9188 146.391 45.3049C148.817 45.929 151.995 46.7463 151.995 50.5106C151.995 54.275 149.228 55.9867 145.393 55.9867C141.352 55.9867 138.746 53.8503 138.746 50.2532V50.2597Z" fill="white"/>
<path d="M138.453 3.29289C138.453 3.29289 138.453 3.29289 138.439 3.28613C138.439 3.28613 138.453 3.29964 138.466 3.29964H138.453V3.29289Z" fill="white"/>
<path d="M143.32 17.4179C143.191 17.849 143.114 18.3187 143.082 18.8013C142.966 20.5452 143.429 22.4885 144.292 23.7497C144.53 24.0972 144.8 24.3997 145.096 24.6249C145.328 24.7986 145.572 24.9337 145.836 25.011C145.971 25.0496 146.106 25.0753 146.248 25.0882C146.351 25.0753 146.441 25.056 146.531 25.0238C146.756 24.9595 146.949 24.8437 147.123 24.6957C147.361 24.4897 147.554 24.2066 147.702 23.872C147.908 23.4087 148.024 22.8489 148.069 22.2311C148.191 20.5516 147.76 18.4989 146.969 17.1026C146.737 16.6972 146.499 16.3754 146.254 16.1309C145.978 15.8542 145.695 15.674 145.424 15.5968C145.193 15.526 144.974 15.526 144.762 15.5775C144.575 15.629 144.401 15.7191 144.24 15.8542C144.054 16.0086 143.88 16.2081 143.732 16.4591C143.584 16.7036 143.455 16.9996 143.352 17.3278C143.352 17.3535 143.333 17.3793 143.327 17.405V17.4179H143.32Z" fill="white"/>
<path d="M141.627 22.4123C141.827 21.9168 141.949 21.3699 141.988 20.8036C142.026 20.2116 141.988 19.6003 141.84 19.0018C141.763 18.6672 141.66 18.3455 141.537 18.0495C141.081 16.9234 140.347 16.0804 139.504 15.5656C139.169 15.3597 138.822 15.2117 138.462 15.1152C138.256 15.0573 138.05 15.0187 137.844 14.9994C137.529 14.9672 137.207 14.9801 136.898 15.0444C136.763 15.0702 136.628 15.1023 136.499 15.1474C136.293 15.2117 136.094 15.3018 135.9 15.4112C135.765 15.4884 135.637 15.5721 135.508 15.6686C135.463 15.7008 135.418 15.7394 135.379 15.7716C135.244 15.8809 135.115 16.0096 134.993 16.1448C134.903 16.2413 134.819 16.3443 134.736 16.4601C134.71 16.4923 134.684 16.5309 134.659 16.5695C134.601 16.6467 134.549 16.7303 134.498 16.814C134.478 16.8397 134.466 16.8719 134.446 16.8977C134.375 17.0263 134.305 17.155 134.24 17.2902C134.189 17.406 134.137 17.5283 134.099 17.6505C134.099 17.6634 134.099 17.6763 134.086 17.6956C134.047 17.8114 134.009 17.9337 133.976 18.0559C133.944 18.1782 133.919 18.3004 133.893 18.4227C133.867 18.5514 133.848 18.6801 133.835 18.8088C133.816 18.9439 133.809 19.0791 133.803 19.2206C133.803 19.3686 133.803 19.5166 133.803 19.6646C133.803 19.8126 133.816 19.9542 133.828 20.1022C133.828 20.1537 133.828 20.1987 133.841 20.2502C133.861 20.4175 133.886 20.5784 133.919 20.7392C133.983 21.0546 134.067 21.3634 134.176 21.6659C134.208 21.7495 134.24 21.8396 134.279 21.9233C134.517 22.4831 134.839 23.0043 135.251 23.4419C135.386 23.5834 135.527 23.7186 135.682 23.8473C135.72 23.8794 135.759 23.9116 135.804 23.9438C135.9 24.0146 135.997 24.0854 136.1 24.1497C136.235 24.2334 136.37 24.3106 136.512 24.3878C136.647 24.4521 136.782 24.5101 136.924 24.568C136.956 24.5808 136.988 24.5937 137.02 24.6066C137.117 24.6388 137.22 24.6709 137.323 24.7031C137.445 24.7353 137.574 24.7675 137.709 24.7932C137.831 24.8189 137.96 24.8318 138.088 24.8511H138.166C138.32 24.8511 138.468 24.8318 138.616 24.8189C138.77 24.7996 138.912 24.7739 139.054 24.7417C139.144 24.7224 139.234 24.6967 139.317 24.6709C139.375 24.6516 139.433 24.6323 139.491 24.613C139.658 24.5551 139.813 24.4779 139.961 24.4007C140.102 24.3234 140.244 24.2334 140.373 24.1433C140.405 24.1175 140.437 24.0982 140.463 24.0725C140.688 23.8923 140.894 23.6864 141.074 23.4612C141.312 23.1587 141.505 22.8177 141.653 22.4509L141.627 22.4123Z" fill="white"/>
<path d="M132 20.8228C132 20.8228 132 20.8035 132 20.7907C132.039 20.6555 132.065 20.5268 132.097 20.3917C132.123 20.2566 132.142 20.1279 132.161 19.9927C132.181 19.8576 132.187 19.7225 132.193 19.5873V19.3042C132.193 19.1626 132.193 19.0275 132.168 18.8924C132.155 18.7959 132.142 18.6929 132.129 18.6028C132.129 18.5771 132.129 18.5513 132.116 18.532C132.116 18.4999 132.103 18.4741 132.097 18.4419C132.065 18.2746 132.02 18.1073 131.975 17.9465C131.936 17.8113 131.891 17.6826 131.84 17.5539C131.788 17.4188 131.73 17.2965 131.672 17.1678C131.621 17.0649 131.569 16.9619 131.511 16.8654C131.453 16.7624 131.389 16.6595 131.318 16.563C131.209 16.3957 131.08 16.2412 130.952 16.0932L130.939 16.0739C130.836 15.9645 130.733 15.8551 130.623 15.7522C130.482 15.6235 130.34 15.5012 130.186 15.3918C129.999 15.2567 129.8 15.128 129.594 15.0186C129.459 14.9478 129.317 14.877 129.182 14.8191C129.098 14.7805 129.008 14.7483 128.918 14.7162C128.674 14.6261 128.416 14.5553 128.159 14.5103C127.934 14.4652 127.702 14.4395 127.47 14.4266H127.438C127.129 14.4137 126.82 14.4266 126.518 14.4716C126.46 14.4781 126.396 14.491 126.338 14.4974C126.08 14.5424 125.823 14.6068 125.572 14.6904C125.295 14.787 125.019 14.9092 124.761 15.0572L124.671 15.1087C124.459 15.2374 124.253 15.379 124.053 15.5398C123.86 15.7007 123.674 15.8744 123.5 16.0675C123.333 16.2541 123.172 16.4536 123.024 16.6724V16.6852C122.908 16.8461 122.811 17.007 122.728 17.1743C122.625 17.3738 122.535 17.5732 122.464 17.7856C122.4 17.9722 122.342 18.1588 122.297 18.3454C122.252 18.5449 122.219 18.7379 122.2 18.9374C122.2 18.976 122.2 19.0146 122.187 19.0533C122.174 19.2206 122.168 19.3943 122.168 19.5616C122.168 19.8447 122.2 20.1214 122.252 20.3917C122.264 20.4689 122.277 20.5397 122.297 20.6169C122.355 20.855 122.425 21.0867 122.515 21.3183C122.535 21.3698 122.554 21.4148 122.573 21.4599C122.644 21.6272 122.728 21.7945 122.811 21.9554C122.902 22.1162 122.998 22.2707 123.101 22.4187C123.101 22.4315 123.12 22.4444 123.127 22.4573C123.23 22.6053 123.346 22.7468 123.468 22.8755C123.571 22.9914 123.68 23.1008 123.796 23.2037C123.809 23.2166 123.822 23.223 123.828 23.2359C123.963 23.3582 124.105 23.4675 124.259 23.5769C124.356 23.6477 124.459 23.7121 124.562 23.7764C124.62 23.8086 124.671 23.8408 124.729 23.8729C124.787 23.9051 124.845 23.9373 124.909 23.9695C125.012 24.0209 125.122 24.0724 125.231 24.1175L125.27 24.1368C125.366 24.1754 125.469 24.214 125.572 24.2462C125.623 24.2655 125.681 24.2848 125.733 24.2976C125.791 24.3169 125.849 24.3298 125.907 24.3491C126.01 24.3749 126.119 24.4006 126.228 24.4263H126.241C126.351 24.4521 126.46 24.4714 126.569 24.4842C126.653 24.4971 126.73 24.5036 126.814 24.5164H126.872C126.949 24.5164 127.033 24.5293 127.116 24.5357H127.174C127.258 24.5357 127.342 24.5229 127.425 24.5164C127.47 24.5164 127.509 24.5164 127.554 24.5036C127.721 24.4843 127.882 24.4585 128.043 24.4328H128.056C128.23 24.3942 128.397 24.3556 128.564 24.3105C128.596 24.3105 128.622 24.2912 128.654 24.2848C128.764 24.2526 128.873 24.214 128.976 24.1754C129.079 24.1368 129.188 24.0917 129.285 24.0467C129.401 23.9952 129.517 23.9373 129.626 23.8794C129.748 23.815 129.864 23.7442 129.973 23.667C129.973 23.667 129.986 23.6542 129.999 23.6542C130.25 23.4868 130.475 23.3002 130.681 23.1008C130.881 22.9077 131.061 22.6954 131.215 22.4766C131.241 22.4444 131.267 22.4058 131.293 22.3736C131.524 22.039 131.704 21.6787 131.846 21.3119C131.904 21.1574 131.955 20.9966 132 20.8357V20.8228Z" fill="white"/>
<path d="M119.981 21.9865C120.032 21.8771 120.077 21.7613 120.122 21.6454C120.154 21.5682 120.18 21.491 120.206 21.4074C120.244 21.2851 120.277 21.1693 120.309 21.047C120.335 20.9376 120.36 20.8218 120.38 20.7124C120.412 20.5322 120.438 20.352 120.45 20.1719C120.463 20.0239 120.47 19.8694 120.47 19.7214C120.47 19.5155 120.457 19.3096 120.425 19.1101C120.399 18.8913 120.354 18.679 120.296 18.4666C120.27 18.3637 120.238 18.2672 120.206 18.1642C120.206 18.1449 120.193 18.1256 120.18 18.0999C120.154 18.0226 120.122 17.9519 120.096 17.8811C119.987 17.6237 119.865 17.3856 119.723 17.1668C119.685 17.1089 119.646 17.051 119.607 16.9995C119.459 16.7936 119.305 16.607 119.131 16.4397C118.932 16.2402 118.713 16.0664 118.481 15.912C118.237 15.7511 117.979 15.616 117.709 15.5131C117.413 15.3972 117.104 15.3071 116.795 15.2557C116.461 15.1977 116.126 15.1784 115.779 15.1913C115.425 15.2042 115.064 15.2557 114.717 15.3522C114.556 15.3908 114.402 15.4423 114.247 15.5002C113.971 15.6031 113.7 15.7318 113.443 15.8798C113.301 15.9635 113.16 16.0536 113.025 16.1501C112.78 16.3303 112.548 16.5298 112.33 16.7614C112.278 16.8193 112.227 16.8708 112.175 16.9287C112.014 17.1089 111.866 17.3084 111.725 17.5207C111.596 17.7202 111.474 17.9325 111.364 18.1513C111.352 18.1835 111.339 18.2157 111.319 18.2479C111.229 18.4409 111.152 18.6404 111.088 18.8399C111.023 19.0329 110.972 19.2324 110.933 19.4254C110.895 19.6249 110.863 19.818 110.85 20.0174C110.83 20.2491 110.824 20.4743 110.837 20.706C110.837 20.8282 110.85 20.9441 110.863 21.0599C110.882 21.2336 110.908 21.4009 110.946 21.5682C110.985 21.7355 111.03 21.9028 111.081 22.0637C111.133 22.2246 111.191 22.379 111.261 22.527C111.313 22.6428 111.364 22.7522 111.422 22.8616C111.422 22.8745 111.435 22.8874 111.442 22.8938C111.512 23.0225 111.59 23.1448 111.667 23.2606C111.731 23.3571 111.802 23.4536 111.879 23.5437C111.982 23.6724 112.092 23.7947 112.214 23.9105C112.285 23.9813 112.355 24.0456 112.426 24.11C112.458 24.1357 112.491 24.1615 112.523 24.1872C112.632 24.2773 112.741 24.3545 112.857 24.4317C112.999 24.5283 113.153 24.6119 113.308 24.6891C113.398 24.7342 113.494 24.7792 113.591 24.8178C113.694 24.8629 113.803 24.9015 113.913 24.9337C114.131 25.0044 114.357 25.0559 114.588 25.0945C114.672 25.1074 114.756 25.1203 114.839 25.1267C115.045 25.146 115.264 25.1589 115.489 25.1524C115.605 25.1524 115.721 25.1524 115.837 25.1331C116.049 25.0945 116.255 25.043 116.448 24.9851C116.551 24.9594 116.647 24.9272 116.744 24.8886C116.873 24.8436 116.995 24.7985 117.117 24.747C117.227 24.702 117.33 24.6505 117.439 24.599C117.561 24.5347 117.683 24.4703 117.799 24.3996C117.851 24.3674 117.902 24.3416 117.954 24.303C118.012 24.2644 118.063 24.2258 118.121 24.1936C118.224 24.1229 118.32 24.0521 118.417 23.9749C118.501 23.9041 118.591 23.8333 118.668 23.7625L118.694 23.7368C118.777 23.6596 118.861 23.5759 118.938 23.4987C118.983 23.4536 119.022 23.415 119.06 23.37C119.144 23.2799 119.221 23.1898 119.292 23.0933C119.318 23.0611 119.344 23.0289 119.363 22.9968C119.44 22.8938 119.511 22.7908 119.582 22.6879C119.627 22.6235 119.665 22.5528 119.71 22.482C119.762 22.3983 119.807 22.3147 119.852 22.2246C119.897 22.1409 119.936 22.0573 119.981 21.9672V21.9865Z" fill="white"/>
<path d="M105.777 27.9136H105.834C106.066 27.8878 106.317 27.8299 106.574 27.7205C106.62 27.7012 106.671 27.6819 106.716 27.6626C106.858 27.5789 106.993 27.4824 107.121 27.3859C107.134 27.3859 107.147 27.3666 107.16 27.3602C107.327 27.2315 107.488 27.0963 107.636 26.9483C107.816 26.7746 107.984 26.588 108.132 26.3949C108.183 26.3306 108.228 26.2727 108.273 26.2083C108.338 26.1182 108.402 26.0217 108.466 25.9252C108.679 25.5841 108.865 25.2238 109.013 24.8506C109.136 24.5481 109.232 24.2328 109.309 23.9111V23.8918C109.406 23.4993 109.464 23.0939 109.496 22.7013C109.515 22.3989 109.515 22.0965 109.496 21.8005C109.483 21.6074 109.464 21.4208 109.432 21.2342C109.419 21.1441 109.399 21.054 109.386 20.9704C109.374 20.8931 109.354 20.8159 109.335 20.7451C109.284 20.5392 109.219 20.3398 109.148 20.1467C109.084 19.973 109.007 19.8121 108.923 19.6512C108.865 19.5483 108.807 19.4453 108.743 19.3488C108.698 19.278 108.646 19.2137 108.601 19.1493C108.55 19.0785 108.492 19.0077 108.434 18.9434C108.318 18.8147 108.202 18.7053 108.08 18.6023C107.868 18.4286 107.643 18.2935 107.411 18.2034C107.366 18.1841 107.321 18.1712 107.276 18.1583C106.973 18.0618 106.665 18.0296 106.349 18.0554C106.201 18.0683 106.053 18.094 105.905 18.139C105.217 18.3321 104.541 18.8083 104.001 19.5225C103.499 20.1853 103.113 21.054 102.919 22.0772C102.823 22.5919 102.784 23.126 102.804 23.6537C102.829 24.4452 102.977 25.2238 103.235 25.893C103.415 26.3563 103.647 26.7682 103.93 27.1028C103.994 27.18 104.058 27.2508 104.129 27.3151C104.399 27.5789 104.715 27.7655 105.062 27.8621C105.287 27.9264 105.519 27.9457 105.777 27.9264V27.9136Z" fill="white"/>
<path d="M102.374 31.2158C102.503 30.5144 102.567 29.7229 102.567 28.9122C102.567 28.1014 102.503 27.2584 102.374 26.4862C102.245 25.714 102.052 24.9998 101.801 24.4335C101.64 24.0796 101.46 23.7836 101.254 23.5584C101.209 23.5133 101.171 23.4683 101.126 23.4297C100.984 23.3074 100.843 23.2238 100.701 23.1852C100.501 23.1208 100.302 23.1466 100.109 23.2366C99.8837 23.3525 99.6778 23.5648 99.4976 23.8673C99.2274 24.3241 99.0215 24.9869 98.9314 25.7977C98.8541 26.4734 98.8542 27.252 98.9635 28.1078C98.9957 28.3652 99.0408 28.6355 99.0922 28.9057C99.1952 29.4269 99.3368 29.9417 99.4976 30.405C99.6328 30.7783 99.8709 31.3445 100.167 31.8529C100.399 32.2454 100.662 32.6058 100.926 32.8052C101.171 32.9854 101.415 33.0433 101.653 32.8889C101.801 32.7924 101.936 32.6186 102.072 32.3484C102.194 32.0073 102.29 31.6277 102.368 31.2158H102.374Z" fill="white"/>
<path d="M101.878 38.9514C101.878 38.9514 101.936 38.99 101.961 39.0029C102.142 39.0866 102.174 38.9772 102.148 38.7841C102.122 38.6168 102.058 38.3916 101.987 38.1793C101.987 38.1793 101.949 38.057 101.884 37.8704C101.781 37.5744 101.614 37.0853 101.402 36.4869C100.777 34.7431 99.7928 32.0983 99.0721 30.7599C98.8984 30.4382 98.744 30.1936 98.6088 30.0521C98.5509 29.9942 98.4994 29.9491 98.4544 29.9298C98.4158 29.9105 98.3772 29.9105 98.345 29.9169C98.2678 29.9362 98.2099 30.0263 98.1777 30.1743V30.2065C98.1391 30.4189 98.1455 30.7277 98.1906 31.1202C98.2034 31.2168 98.2163 31.3197 98.2356 31.4291C98.3 31.8474 98.4093 32.3364 98.5574 32.8577C98.6153 33.07 98.686 33.2952 98.7568 33.5204C98.9306 34.061 99.1494 34.6337 99.4067 35.2064C99.4325 35.2643 99.4582 35.3286 99.4904 35.3865C99.9344 36.3582 100.411 37.1497 100.829 37.7417C101.286 38.3852 101.672 38.797 101.897 38.9514H101.878Z" fill="white"/>
<path d="M140.914 8.15922V8.17209C140.901 8.30722 140.895 8.45522 140.901 8.60322C140.901 8.7834 140.927 8.97644 140.965 9.17592C141.01 9.43975 141.075 9.71001 141.165 9.98671C141.293 10.405 141.467 10.8232 141.673 11.2351C142.349 12.5671 143.378 13.7447 144.414 14.0407C144.504 14.0664 144.601 14.0857 144.691 14.0986C144.826 14.0857 144.948 14.0535 145.051 14.002C145.18 13.9377 145.277 13.8412 145.354 13.7189C145.431 13.5902 145.483 13.4358 145.508 13.262C145.534 13.1012 145.534 12.921 145.521 12.7215C145.502 12.4706 145.444 12.1939 145.36 11.8979C145.27 11.5761 145.148 11.2415 145 10.894C144.852 10.553 144.672 10.1991 144.472 9.85158C144.183 9.3561 143.848 8.86062 143.475 8.40374C143.288 8.17209 143.121 7.98548 142.96 7.81817C142.838 7.69591 142.716 7.58652 142.606 7.49643C142.432 7.35486 142.272 7.25191 142.13 7.18112C141.898 7.07173 141.705 7.03956 141.551 7.07817C141.448 7.10391 141.358 7.15538 141.281 7.23904C141.178 7.34199 141.1 7.48356 141.043 7.6573C140.991 7.8053 140.959 7.97904 140.94 8.16565H140.92L140.914 8.15922Z" fill="white"/>
<path d="M133.151 8.71775C133.151 8.98801 133.177 9.26471 133.241 9.54784C133.305 9.85028 133.415 10.1592 133.55 10.4552C133.595 10.5581 133.646 10.6546 133.704 10.7576C133.807 10.9378 133.917 11.1179 134.039 11.2917C134.2 11.5169 134.386 11.7357 134.586 11.9416C134.644 11.9995 134.708 12.0639 134.766 12.1218C135.262 12.5851 135.86 12.9712 136.536 13.2286C136.69 13.2865 136.845 13.338 137.005 13.383C137.025 13.383 137.05 13.3959 137.07 13.4023C137.263 13.4538 137.462 13.4924 137.668 13.5246C137.977 13.5374 138.247 13.5181 138.492 13.4731C138.704 13.4345 138.897 13.3766 139.071 13.3058C139.393 13.1707 139.637 12.984 139.824 12.7717C139.85 12.7395 139.882 12.7073 139.908 12.6752C140.068 12.4693 140.178 12.244 140.255 12.0188C140.358 11.7164 140.397 11.4139 140.416 11.1694C140.429 10.9313 140.416 10.7447 140.403 10.6418C140.403 10.5517 140.384 10.4552 140.371 10.3651C140.313 10.0047 140.216 9.65723 140.088 9.32906C139.953 8.98158 139.779 8.65983 139.573 8.3574C139.354 8.02279 139.097 7.72035 138.814 7.45652C137.7 6.39477 136.208 5.88642 134.985 6.25321C134.908 6.27895 134.83 6.30469 134.753 6.33686C134.431 6.47199 134.129 6.66504 133.865 6.94173C133.833 6.98034 133.794 7.01252 133.762 7.05113C133.724 7.09617 133.679 7.14765 133.64 7.19913C133.498 7.38574 133.389 7.58522 133.312 7.79757C133.26 7.9327 133.222 8.07426 133.196 8.22227C133.164 8.38314 133.151 8.55044 133.145 8.72418H133.151V8.71775Z" fill="white"/>
<path d="M127.581 5.2568C127.279 5.21819 126.97 5.19889 126.668 5.20532C126.333 5.20532 125.998 5.24393 125.67 5.30184C125.245 5.37906 124.827 5.50132 124.441 5.67506C124.177 5.79089 123.926 5.93246 123.688 6.09333C123.489 6.23489 123.296 6.38933 123.122 6.56307C123.07 6.61455 123.019 6.67246 122.967 6.72394C122.749 6.96847 122.575 7.23229 122.446 7.50256C122.433 7.53473 122.414 7.5669 122.401 7.59908C122.285 7.86934 122.215 8.14604 122.176 8.42274C122.157 8.57717 122.15 8.73804 122.157 8.89248C122.157 9.11126 122.195 9.33648 122.253 9.55527C122.292 9.69683 122.337 9.84484 122.388 9.9864C122.491 10.2374 122.62 10.4819 122.781 10.7135C122.935 10.9452 123.122 11.164 123.341 11.3699C123.547 11.5694 123.778 11.756 124.036 11.9297C124.267 12.0842 124.525 12.2257 124.795 12.348C125.033 12.4574 125.29 12.5539 125.554 12.6311C125.734 12.6826 125.915 12.7341 126.108 12.7727C126.23 12.7984 126.352 12.8177 126.481 12.8435C126.719 12.8821 126.964 12.9078 127.221 12.9207C127.382 12.9207 127.543 12.9078 127.691 12.8949H127.716C128.09 12.8563 128.424 12.7984 128.733 12.7212C129.1 12.6247 129.422 12.5024 129.705 12.3609C130.052 12.1871 130.342 11.9812 130.593 11.756C130.799 11.5629 130.972 11.3635 131.12 11.1575C131.211 11.0288 131.288 10.9001 131.359 10.765C131.494 10.5076 131.584 10.2567 131.648 10.0121C131.667 9.93492 131.687 9.85771 131.7 9.78692C131.725 9.64536 131.738 9.51666 131.745 9.3944C131.745 9.23353 131.745 9.07266 131.745 8.91822C131.732 8.78309 131.719 8.65439 131.693 8.52569C131.661 8.35195 131.616 8.18465 131.558 8.02378C131.455 7.72778 131.307 7.45751 131.133 7.20012C130.96 6.94916 130.754 6.72394 130.516 6.51803C130.252 6.28637 129.956 6.08689 129.64 5.91315C129.235 5.69437 128.785 5.52706 128.321 5.41124C128.083 5.35332 127.839 5.30828 127.594 5.2761V5.2568H127.581Z" fill="white"/>
<path d="M119.389 6.27457C119.202 6.12656 118.996 5.99787 118.778 5.89491C118.469 5.74691 118.134 5.63752 117.774 5.57317C117.42 5.50239 117.047 5.47665 116.661 5.48952C116.332 5.50239 115.991 5.541 115.65 5.60534C115.412 5.65039 115.174 5.71474 114.936 5.79195C114.569 5.90778 114.203 6.06222 113.842 6.25526C113.366 6.50622 112.916 6.82153 112.497 7.20118C112.272 7.40066 112.06 7.62588 111.86 7.86397C111.783 7.96049 111.706 8.05702 111.629 8.15354C111.468 8.37232 111.326 8.59754 111.21 8.8292C111.037 9.16381 110.908 9.50485 110.824 9.8459C110.753 10.1226 110.721 10.4057 110.715 10.676C110.715 10.9334 110.734 11.1908 110.792 11.4289C110.792 11.4417 110.792 11.4546 110.792 11.4675C110.876 11.8021 111.011 12.111 111.21 12.3877C111.275 12.4777 111.345 12.5678 111.423 12.6515C111.609 12.851 111.835 13.0311 112.098 13.1791C112.156 13.2113 112.214 13.2435 112.279 13.2757C112.568 13.4172 112.896 13.5266 113.263 13.5974C113.572 13.6553 113.907 13.6875 114.267 13.6875C114.563 13.6875 114.878 13.6682 115.206 13.6296C115.277 13.6167 115.341 13.5974 115.412 13.5845C115.573 13.5459 115.734 13.5073 115.888 13.4623C116.146 13.3915 116.39 13.3078 116.622 13.2178C116.834 13.1341 117.034 13.0504 117.22 12.9539C117.549 12.7931 117.858 12.6064 118.134 12.4134C118.154 12.4005 118.173 12.3877 118.192 12.3748C118.45 12.1882 118.681 11.9951 118.887 11.7957C119.087 11.6026 119.267 11.4031 119.421 11.2036C119.634 10.9334 119.814 10.6503 119.962 10.3671C120.11 10.084 120.219 9.80086 120.296 9.52416C120.296 9.51129 120.296 9.50485 120.296 9.49198C120.38 9.17668 120.431 8.8678 120.431 8.58467C120.431 8.49458 120.431 8.4045 120.431 8.31441C120.431 8.21789 120.412 8.1278 120.399 8.03771C120.367 7.86397 120.328 7.69666 120.271 7.53579C120.226 7.41353 120.174 7.2977 120.116 7.18188C119.949 6.86014 119.724 6.577 119.453 6.34535C119.421 6.31961 119.395 6.29387 119.363 6.26813H119.383L119.389 6.27457Z" fill="white"/>
<path d="M102.066 15.2866C102.066 15.5762 102.105 15.84 102.169 16.0781C102.214 16.2454 102.272 16.3998 102.343 16.535C102.472 16.7795 102.652 16.979 102.884 17.1141C103.09 17.2364 103.341 17.3007 103.63 17.3007C103.881 17.3007 104.158 17.2557 104.473 17.1527C104.64 17.1012 104.814 17.0304 105.001 16.9404C105.052 16.9146 105.11 16.8889 105.168 16.8631C105.618 16.5864 106.037 16.2647 106.423 15.9172C106.487 15.8593 106.551 15.8014 106.616 15.737C107.105 15.2673 107.53 14.7461 107.89 14.2055C108.147 13.8195 108.366 13.4334 108.559 13.0408C108.759 12.6226 108.92 12.2107 109.042 11.8118C109.125 11.5415 109.19 11.2777 109.235 11.0267C109.293 10.7307 109.318 10.4476 109.325 10.1838C109.325 9.92638 109.306 9.68186 109.261 9.46951C109.248 9.40516 109.228 9.34725 109.216 9.28933V9.27003C109.158 9.08985 109.08 8.93542 108.99 8.80029C108.855 8.60081 108.688 8.45281 108.501 8.34985C108.45 8.32411 108.398 8.29837 108.34 8.27906H108.327C107.613 8.02167 106.616 8.31767 105.612 9.03194C104.73 9.66255 103.849 10.6149 103.154 11.8118C103.077 11.9469 102.999 12.0821 102.929 12.2236C102.774 12.5132 102.613 12.8864 102.485 13.221C102.44 13.3433 102.401 13.4591 102.362 13.5621C102.304 13.7422 102.259 13.916 102.214 14.0962C102.124 14.4822 102.079 14.8683 102.079 15.2223V15.2802H102.066V15.2866Z" fill="white"/>
<path d="M100.457 13.8729C100.386 13.9179 100.315 13.9758 100.238 14.0531C100.039 14.2525 99.8197 14.5614 99.601 14.9411C99.0218 15.9578 98.4169 17.5343 98.0437 19.2267C97.9536 19.6321 97.8829 20.031 97.8314 20.4107C97.7284 21.1121 97.6898 21.7491 97.722 22.2639C97.722 22.3154 97.722 22.3604 97.722 22.4055C97.7413 22.6307 97.7735 22.8366 97.8185 23.0039C97.8185 23.0297 97.8314 23.0554 97.8378 23.0811C97.8893 23.2484 97.9601 23.3964 98.0566 23.4801C98.0888 23.5058 98.1145 23.5316 98.1531 23.5444C98.1982 23.5637 98.2496 23.5702 98.3011 23.5637C98.4041 23.5444 98.5263 23.4801 98.6615 23.3385C98.7065 23.2935 98.7451 23.2484 98.7902 23.1905C98.9124 23.0361 99.054 22.8366 99.2084 22.5663C99.2535 22.4763 99.305 22.3797 99.35 22.2832C99.8841 21.1829 100.347 19.8122 100.682 18.4931C100.798 18.0427 100.894 17.5922 100.972 17.1675C100.991 17.0517 101.01 16.9359 101.029 16.8265C101.113 16.331 101.165 15.8741 101.19 15.4623C101.203 15.2371 101.203 15.0247 101.19 14.8317C101.19 14.703 101.177 14.5872 101.158 14.4778C101.145 14.3941 101.132 14.3169 101.113 14.2461C101.087 14.156 101.062 14.0788 101.029 14.0145C100.978 13.9115 100.92 13.8471 100.849 13.8085C100.804 13.7828 100.759 13.7764 100.714 13.7764C100.631 13.7764 100.54 13.8085 100.45 13.8729H100.457Z" fill="white"/>
<path d="M132.851 3.07422C132.908 3.20935 132.999 3.35091 133.101 3.49248C133.307 3.77561 133.597 4.05875 133.951 4.31614C134.543 4.74727 135.322 5.10762 136.21 5.29423C136.46 5.32641 137.072 5.40363 137.548 5.21058C137.722 5.1398 137.876 5.03684 137.986 4.88884C138.005 4.8631 138.024 4.83093 138.043 4.80519C138.082 4.74084 138.108 4.67649 138.127 4.61214C138.166 4.50275 138.179 4.38692 138.172 4.26466C138.172 4.09092 138.108 3.91074 138.018 3.73057C137.953 3.60187 137.87 3.47318 137.767 3.34448C137.741 3.3123 137.715 3.28013 137.69 3.24796C137.574 3.11282 137.439 2.97769 137.291 2.849C137.265 2.82969 137.239 2.81039 137.22 2.78465C137.091 2.68169 136.956 2.57873 136.808 2.48221C136.377 2.19908 135.888 1.96099 135.386 1.81299C135.167 1.74864 134.942 1.69716 134.723 1.66499C134.62 1.65212 134.517 1.63925 134.414 1.63281C134.311 1.63281 134.202 1.63281 134.105 1.63281H133.99C133.803 1.64568 133.623 1.67786 133.455 1.72934H133.436C133.436 1.72934 133.391 1.7422 133.365 1.75507C133.262 1.79368 133.134 1.85803 133.044 1.92238C132.992 1.96099 132.954 1.9996 132.915 2.04464C132.876 2.08969 132.838 2.14116 132.812 2.19264C132.728 2.35995 132.709 2.55299 132.748 2.76534C132.767 2.86187 132.799 2.96482 132.844 3.07422H132.851Z" fill="white"/>
<path d="M131.479 2.64409C131.588 2.39313 131.62 2.15504 131.575 1.94269C131.575 1.91051 131.562 1.88477 131.549 1.8526C131.491 1.66599 131.382 1.49868 131.234 1.34425C131.015 1.12546 130.713 0.932419 130.346 0.771548C129.844 0.552764 129.233 0.398328 128.576 0.301805C128.383 0.276066 128.184 0.256762 127.991 0.237457C126.961 0.160239 125.88 0.237457 125.012 0.501285C124.947 0.52059 124.876 0.539894 124.812 0.565634C124.793 0.565634 124.78 0.578503 124.761 0.584938C124.561 0.655721 124.317 0.758679 124.091 0.900245C123.969 0.977463 123.847 1.06112 123.744 1.15764C123.725 1.17051 123.712 1.18981 123.692 1.20912C123.583 1.31851 123.493 1.43434 123.429 1.55016C123.384 1.63382 123.351 1.71747 123.332 1.80112C123.313 1.89121 123.3 1.9813 123.306 2.07138C123.306 2.1486 123.326 2.23226 123.351 2.30947C123.409 2.51539 123.538 2.71487 123.718 2.90791C123.905 3.10096 124.156 3.28757 124.458 3.45487C124.786 3.63505 125.179 3.79592 125.642 3.92462C125.99 4.02114 126.369 4.10479 126.781 4.16271C126.929 4.18201 127.084 4.20132 127.238 4.22062C127.586 4.23349 127.901 4.22705 128.197 4.21418C128.872 4.17558 129.413 4.05975 129.844 3.91175C130.256 3.77018 130.565 3.59644 130.797 3.42913C130.919 3.33905 131.022 3.24896 131.105 3.16531C131.17 3.10096 131.221 3.04304 131.266 2.98513C131.363 2.86287 131.421 2.75991 131.446 2.702C131.446 2.68269 131.459 2.66982 131.466 2.65695L131.479 2.64409Z" fill="white"/>
<path d="M122.153 1.14435C122.166 1.08 122.179 1.01565 122.179 0.957737V0.880519C122.166 0.758257 122.127 0.648865 122.057 0.552342C121.902 0.339993 121.613 0.185557 121.226 0.0954689C120.731 -0.0139233 120.081 -0.026793 119.36 0.0439902C119.064 0.0761644 118.755 0.121208 118.44 0.179122C117.758 0.307818 117.044 0.507298 116.362 0.764692C115.956 0.919128 115.564 1.08643 115.197 1.27948C114.92 1.42104 114.676 1.56261 114.47 1.70418C114.11 1.94227 113.852 2.16105 113.659 2.34766C113.556 2.45062 113.472 2.55358 113.408 2.63723C113.35 2.71445 113.299 2.79166 113.254 2.86888C113.215 2.93967 113.183 3.01045 113.157 3.08123C113.157 3.10054 113.144 3.11341 113.138 3.13271C113.08 3.30002 113.067 3.47376 113.099 3.62819C113.119 3.71828 113.151 3.80193 113.202 3.87915C113.279 4.00141 113.389 4.11081 113.55 4.20089C113.569 4.21376 113.595 4.22663 113.62 4.2395C113.788 4.32959 114 4.40037 114.258 4.45185C114.296 4.45829 114.328 4.46472 114.367 4.47116C114.528 4.4969 114.708 4.5162 114.907 4.52907C115.306 4.54837 115.783 4.52907 116.342 4.46472C116.375 4.46472 116.407 4.45185 116.445 4.44542C116.844 4.37463 117.218 4.29098 117.571 4.19446C118.086 4.05933 118.562 3.89202 118.987 3.71828L119.019 3.70541C119.38 3.55741 119.708 3.3901 120.01 3.2228C120.403 3.00401 120.737 2.77236 121.021 2.54714C121.021 2.54714 121.04 2.53427 121.046 2.52784C121.233 2.3734 121.4 2.2254 121.542 2.0774C121.67 1.94227 121.78 1.82 121.864 1.69774C121.921 1.62052 121.973 1.54331 122.012 1.46609C122.05 1.40174 122.082 1.33096 122.108 1.27304C122.127 1.22156 122.14 1.17652 122.153 1.13148V1.14435Z" fill="white"/>
<path d="M104.534 7.64967C104.515 7.71402 104.502 7.78481 104.502 7.86202C104.502 7.8942 104.502 7.92637 104.515 7.95855C104.541 8.05507 104.611 8.13229 104.759 8.15159C104.849 8.16446 104.965 8.15803 105.12 8.12585C105.223 8.10655 105.345 8.06794 105.48 8.02289C105.763 7.92637 106.13 7.7655 106.593 7.51454C107.301 7.10915 107.983 6.65871 108.627 6.18897C109.148 5.80931 109.637 5.41679 110.081 5.03713C110.448 4.72182 110.782 4.41295 111.085 4.11052C111.316 3.87886 111.529 3.66008 111.709 3.45416C111.979 3.15172 112.192 2.87503 112.34 2.64337C112.34 2.63694 112.352 2.62407 112.359 2.61763C112.455 2.45676 112.526 2.32163 112.558 2.21224C112.571 2.17363 112.578 2.13502 112.584 2.09641C112.584 2.05137 112.584 2.01276 112.571 1.98059C112.533 1.86476 112.404 1.81328 112.211 1.82615C111.818 1.84545 111.136 2.10928 110.332 2.54685C109.425 3.0359 108.356 3.73729 107.346 4.54165C107.198 4.66391 107.05 4.77974 106.902 4.90843C106.207 5.494 105.628 6.0667 105.21 6.56862L105.197 6.58149C105.171 6.61367 105.139 6.65227 105.113 6.68445C104.856 6.99976 104.676 7.28289 104.579 7.51454C104.56 7.55959 104.547 7.59819 104.534 7.6368V7.64967Z" fill="white"/>
</svg>
