<svg width="30" height="24" viewBox="0 0 30 24" fill="none" xmlns="http://www.w3.org/2000/svg">
<g id="Layer_1" clip-path="url(#clip0_895_10856)">
<g id="Group">
<path id="Vector" d="M19.0465 4.44727C19.4561 4.44727 19.7883 4.11504 19.7883 3.70547V0.741797C19.7883 0.332227 19.4561 0 19.0465 0C18.6369 0 18.3047 0.332227 18.3047 0.741797V3.70547C18.3047 4.11504 18.6369 4.44727 19.0465 4.44727Z" fill="#FEB137"/>
<path id="Vector_2" d="M13.397 6.35303C13.6864 6.64248 14.1563 6.64248 14.4458 6.35303C14.7353 6.06357 14.7353 5.59365 14.4458 5.3042L12.3499 3.2083C12.0604 2.91885 11.5905 2.91885 11.3011 3.2083C11.0116 3.49775 11.0116 3.96768 11.3011 4.25713L13.397 6.35303Z" fill="#FEB137"/>
<path id="Vector_3" d="M12.541 10.9537C12.541 10.5441 12.2088 10.2119 11.7992 10.2119H8.83555C8.42598 10.2119 8.09375 10.5441 8.09375 10.9537C8.09375 11.3633 8.42598 11.6955 8.83555 11.6955H11.7992C12.2088 11.6955 12.541 11.3633 12.541 10.9537Z" fill="#FEB137"/>
<path id="Vector_4" d="M13.397 15.554L11.3011 17.6499C11.0116 17.9394 11.0116 18.4093 11.3011 18.6987C11.5905 18.9882 12.0604 18.9882 12.3499 18.6987L14.4458 16.6028C14.7353 16.3134 14.7353 15.8435 14.4458 15.554C14.1563 15.2646 13.6864 15.2646 13.397 15.554Z" fill="#FEB137"/>
<path id="Vector_5" d="M19.0465 17.46C18.6369 17.46 18.3047 17.7922 18.3047 18.2018V21.1654C18.3047 21.575 18.6369 21.9072 19.0465 21.9072C19.4561 21.9072 19.7883 21.575 19.7883 21.1654V18.2018C19.7883 17.7922 19.4561 17.46 19.0465 17.46Z" fill="#FEB137"/>
<path id="Vector_6" d="M24.6976 15.554C24.4081 15.2646 23.9382 15.2646 23.6487 15.554C23.3593 15.8435 23.3593 16.3134 23.6487 16.6028L25.7446 18.6987C26.0341 18.9882 26.504 18.9882 26.7935 18.6987C27.0829 18.4093 27.0829 17.9394 26.7935 17.6499L24.6976 15.554Z" fill="#FEB137"/>
<path id="Vector_7" d="M29.2582 10.2119H26.2945C25.885 10.2119 25.5527 10.5441 25.5527 10.9537C25.5527 11.3633 25.885 11.6955 26.2945 11.6955H29.2582C29.6678 11.6955 30 11.3633 30 10.9537C30 10.5441 29.6678 10.2119 29.2582 10.2119Z" fill="#FEB137"/>
<path id="Vector_8" d="M24.6976 6.35303L26.7935 4.25713C27.0829 3.96768 27.0829 3.49775 26.7935 3.2083C26.504 2.91885 26.0341 2.91885 25.7446 3.2083L23.6487 5.3042C23.3593 5.59365 23.3593 6.06357 23.6487 6.35303C23.9382 6.64248 24.4081 6.64248 24.6976 6.35303Z" fill="#FEB137"/>
<path id="Vector_9" d="M19.8143 15.6822C22.4265 15.2582 24.2004 12.7968 23.7764 10.1846C23.3523 7.57234 20.891 5.79844 18.2787 6.22247C15.6665 6.64649 13.8926 9.10788 14.3166 11.7201C14.7406 14.3324 17.202 16.1063 19.8143 15.6822Z" fill="#FEB137"/>
</g>
<g id="Group_2">
<path id="Vector_10" d="M24.1687 19.0912C23.7334 16.0806 20.973 16.298 20.973 16.298C21.0404 15.0763 20.5969 14.2303 20.5969 14.2303C18.7436 11.1283 15.8701 11.907 15.8701 11.907C15.293 8.06678 11.4252 7.71756 11.4252 7.71756C10.1139 7.62439 9.06797 7.80662 8.23242 8.15467C8.62266 8.1283 9.03984 8.12713 9.48926 8.15818C9.48926 8.15818 13.4063 8.49744 13.991 12.2299C13.991 12.2299 16.9014 11.4728 18.7781 14.4875C18.7781 14.4875 19.227 15.3095 19.159 16.4972C19.159 16.4972 21.9545 16.2857 22.3957 19.2119C22.8715 22.3701 19.9611 23.3615 18.7512 23.3615H20.5705C21.7658 23.3615 24.6393 22.3408 24.1693 19.0912H24.1687Z" fill="#C4E2FF"/>
<path id="Vector_11" d="M22.3963 19.2116C21.9551 16.286 19.1596 16.4969 19.1596 16.4969C19.2276 15.3092 18.7787 14.4871 18.7787 14.4871C16.902 11.4725 13.9916 12.2295 13.9916 12.2295C13.4069 8.49711 9.48986 8.15785 9.48986 8.15785C9.04045 8.12738 8.62326 8.12797 8.23302 8.15434C4.97814 9.51195 4.92716 13.3973 4.92716 13.3973C4.92716 13.3973 0.442398 13.2766 0.0257967 17.9225C-0.390805 22.5684 4.37638 23.3606 4.37638 23.3606H18.7512C19.9617 23.3606 22.8721 22.3686 22.3957 19.211L22.3963 19.2116Z" fill="#D8ECFE"/>
</g>
</g>
<defs>
<clipPath id="clip0_895_10856">
<rect width="30" height="23.3619" fill="white"/>
</clipPath>
</defs>
</svg>
