<svg width="24" height="21" viewBox="0 0 24 21" fill="none" xmlns="http://www.w3.org/2000/svg">
<g id="Layer_1" clip-path="url(#clip0_895_11099)">
<g id="Group">
<path id="Vector" d="M23.9486 11.2939C23.5172 8.31079 20.7821 8.52619 20.7821 8.52619C20.8488 7.31565 20.4093 6.47727 20.4093 6.47727C18.5729 3.40361 15.7257 4.17522 15.7257 4.17522C15.1538 0.37001 11.3219 0.0239762 11.3219 0.0239762C10.0225 -0.0683382 8.98613 0.112226 8.1582 0.457099C8.54488 0.430972 8.95826 0.429811 9.40358 0.460583C9.40358 0.460583 13.2848 0.796746 13.8643 4.49513C13.8643 4.49513 16.7481 3.745 18.6077 6.73216C18.6077 6.73216 19.0525 7.54673 18.9851 8.72359C18.9851 8.72359 21.7551 8.514 22.1923 11.4135C22.6638 14.5429 19.7799 15.5252 18.581 15.5252H20.3838C21.5682 15.5252 24.4154 14.5139 23.9498 11.2939H23.9486Z" fill="#C4E2FF"/>
<path id="Vector_2" d="M22.192 11.4127C21.7549 8.51379 18.9848 8.7228 18.9848 8.7228C19.0522 7.54594 18.6075 6.73137 18.6075 6.73137C16.7478 3.74421 13.864 4.49434 13.864 4.49434C13.2846 0.796539 9.40331 0.460375 9.40331 0.460375C8.95799 0.430184 8.54461 0.430765 8.15794 0.456891C4.93274 1.80213 4.88223 5.65204 4.88223 5.65204C4.88223 5.65204 0.438364 5.53244 0.0255614 10.136C-0.387241 14.7395 4.33647 15.5245 4.33647 15.5245H18.5802C19.7797 15.5245 22.6635 14.5415 22.1915 11.4127H22.192Z" fill="#D8ECFE"/>
</g>
<g id="Group_2">
<path id="Vector_3" d="M7.42338 12.0503C6.90529 11.8359 6.27328 12.3267 6.01091 13.1464L4.11368 19.0773C3.8513 19.897 4.05853 20.7353 4.57662 20.9497C5.09471 21.1641 5.72672 20.6733 5.98909 19.8536L7.88632 13.9227C8.1487 13.103 7.94146 12.2647 7.42338 12.0503Z" fill="#2297F3"/>
<path id="Vector_4" d="M12.4234 12.0503C11.9053 11.8359 11.2733 12.3267 11.0109 13.1464L9.11368 19.0773C8.8513 19.897 9.05853 20.7353 9.57662 20.9497C10.0947 21.1641 10.7267 20.6733 10.9891 19.8536L12.8863 13.9227C13.1487 13.103 12.9415 12.2647 12.4234 12.0503Z" fill="#2297F3"/>
<path id="Vector_5" d="M17.4234 12.0503C16.9053 11.8359 16.2733 12.3267 16.0109 13.1464L14.1137 19.0773C13.8513 19.897 14.0585 20.7353 14.5766 20.9497C15.0947 21.1641 15.7267 20.6733 15.9891 19.8536L17.8863 13.9227C18.1487 13.103 17.9415 12.2647 17.4234 12.0503Z" fill="#2297F3"/>
</g>
</g>
<defs>
<clipPath id="clip0_895_11099">
<rect width="24" height="21" fill="white"/>
</clipPath>
</defs>
</svg>
