<svg width="20" height="21" viewBox="0 0 20 21" fill="none" xmlns="http://www.w3.org/2000/svg">
<g id="Layer_1" clip-path="url(#clip0_895_11107)">
<path id="Vector" d="M10.849 11.9432V12.2079C10.849 13.3202 10.8539 14.4324 10.844 15.5447C10.8426 15.7392 10.9079 15.8716 11.05 16.0046C11.9707 16.869 12.8822 17.7429 13.8008 18.61C13.869 18.6742 13.9649 18.712 14.0331 18.7532C13.5799 19.1834 13.1856 19.5575 12.7856 19.9377C12.176 19.3563 11.5487 18.7579 10.9214 18.1596C10.9008 18.1711 10.8809 18.1832 10.8603 18.1947V21H9.15743V18.1954C8.5152 18.8065 7.88718 19.4035 7.27479 19.9863C6.82722 19.5602 6.42796 19.18 6.01449 18.7863C6.31358 18.5026 6.63328 18.2001 6.95297 17.8969C7.6364 17.2479 8.32126 16.5996 9.00043 15.9458C9.06863 15.8803 9.14038 15.7797 9.14109 15.6946C9.15033 14.4561 9.14748 13.2182 9.14748 11.9466C9.06792 11.9803 9.00611 11.9992 8.95212 12.0296C7.90281 12.6259 6.8528 13.2202 5.80989 13.8253C5.71114 13.8827 5.61949 14.0016 5.58966 14.109C5.24439 15.3448 4.91191 16.584 4.57516 17.8219C4.55811 17.8861 4.53467 17.9482 4.50767 18.0313C3.96135 17.8969 3.4264 17.7652 2.87297 17.6288C3.0996 16.7968 3.31983 15.9864 3.55854 15.1091C2.66198 15.621 1.82012 16.1018 0.956237 16.5942C0.659988 16.1343 0.375107 15.6919 0.0788576 15.2307C0.956948 14.7289 1.8187 14.2359 2.73373 13.7132C1.78957 13.4849 0.904376 13.2715 0 13.0527C0.139955 12.5348 0.276357 12.0316 0.421284 11.4975C0.636544 11.5454 0.840437 11.588 1.0422 11.6373C2.22577 11.9249 3.40793 12.2167 4.59292 12.4969C4.7002 12.5219 4.84655 12.5105 4.93961 12.4585C6.04575 11.8378 7.14478 11.2071 8.24595 10.5783C8.27508 10.5615 8.30136 10.5398 8.35109 10.5047C8.26939 10.4514 8.20261 10.4028 8.13015 10.3616C7.08227 9.76322 6.03652 9.16218 4.98153 8.57532C4.86857 8.51251 4.6938 8.48887 4.56593 8.51926C3.27721 8.82046 1.99204 9.13719 0.705456 9.44851C0.621625 9.46877 0.536374 9.48566 0.424126 9.50997C0.28133 8.98456 0.142796 8.47604 0 7.95266C0.904376 7.73453 1.78673 7.52248 2.73586 7.29354C1.82438 6.77286 0.95979 6.27852 0.0795681 5.7754C0.377238 5.31281 0.66212 4.87047 0.956948 4.41192C1.81941 4.90423 2.65914 5.38371 3.55854 5.89764C3.32339 5.03254 3.10386 4.22485 2.8744 3.38069C3.41077 3.24698 3.94572 3.11326 4.50767 2.97279C4.54746 3.10313 4.59008 3.22874 4.62418 3.3557C4.9453 4.53685 5.26073 5.71868 5.59037 6.8978C5.6202 7.0045 5.71185 7.12336 5.8106 7.18076C6.85351 7.78653 7.90423 8.38014 8.95283 8.97713C9.00398 9.00617 9.05797 9.02981 9.12901 9.0656C9.13754 9.01225 9.14677 8.98186 9.14677 8.95147C9.14748 7.74669 9.15104 6.54123 9.14038 5.33644C9.13967 5.23717 9.06152 5.11764 8.98266 5.042C8.05982 4.15529 7.13129 3.27467 6.20134 2.39471C6.13313 2.32988 6.0422 2.28599 5.98394 2.24749C6.42796 1.82406 6.8258 1.44453 7.24993 1.04068C7.85735 1.62146 8.47968 2.21643 9.14109 2.84921V0H10.834V2.79181C11.4727 2.18198 12.0972 1.58567 12.7046 1.00556C13.1671 1.44655 13.5649 1.82609 13.9969 2.23804C13.7901 2.42375 13.5536 2.62635 13.3284 2.83908C12.5483 3.57586 11.7704 4.31332 10.9989 5.05821C10.9214 5.13249 10.8561 5.25675 10.8554 5.35805C10.8454 6.54595 10.849 7.73453 10.8497 8.92243C10.8497 8.9616 10.8568 9.00077 10.8632 9.06493C10.9449 9.02576 11.0074 8.99942 11.0656 8.96633C12.1071 8.37407 13.15 7.78518 14.1851 7.18279C14.2896 7.12201 14.3798 6.99032 14.4118 6.87484C14.7556 5.64709 15.086 4.41664 15.4206 3.18687C15.4383 3.12272 15.4596 3.05924 15.4866 2.97077C16.0308 3.10448 16.5658 3.2355 17.1242 3.37259C16.8976 4.20797 16.6759 5.02444 16.4386 5.89831C17.3338 5.38709 18.1735 4.90761 19.0423 4.41192C19.3329 4.86236 19.6171 5.30403 19.919 5.7727C19.0452 6.27177 18.1849 6.76409 17.267 7.28814C18.2069 7.51573 19.0892 7.72913 19.9979 7.94861C19.8558 8.47131 19.718 8.97984 19.5737 9.51132C18.9322 9.35667 18.317 9.20877 17.7018 9.05952C16.9473 8.87651 16.1942 8.68674 15.4376 8.51318C15.3211 8.48617 15.1641 8.4909 15.0654 8.54628C13.9585 9.16488 12.8595 9.79631 11.7583 10.425C11.7292 10.4419 11.7036 10.4642 11.6539 10.5007C11.7271 10.55 11.7853 10.5945 11.85 10.631C12.8978 11.2294 13.9471 11.8243 14.9922 12.4274C15.1485 12.5172 15.2863 12.5368 15.4653 12.4922C16.818 12.1559 18.1735 11.8311 19.5702 11.4921C19.7123 12.0073 19.8515 12.5138 20 13.0534C19.1006 13.2709 18.214 13.4856 17.2663 13.7146C18.1706 14.2312 19.031 14.7228 19.919 15.23C19.627 15.6838 19.3436 16.1255 19.0438 16.5921C18.1849 16.1018 17.3394 15.6197 16.4386 15.1057C16.6752 15.9756 16.8961 16.786 17.1256 17.6294C16.5857 17.7632 16.05 17.8955 15.4824 18.0367C15.3559 17.5747 15.2302 17.1216 15.1073 16.6678C14.875 15.8128 14.6476 14.9558 14.4082 14.1029C14.3812 14.0077 14.3137 13.8949 14.2299 13.8462C13.1486 13.2202 12.0602 12.6036 10.9733 11.9857C10.9449 11.9695 10.9108 11.9641 10.8504 11.9439L10.849 11.9432Z" fill="#62B4DD"/>
</g>
<defs>
<clipPath id="clip0_895_11107">
<rect width="20" height="21" fill="white"/>
</clipPath>
</defs>
</svg>
