<svg width="24" height="24" viewBox="0 0 24 24" fill="none" xmlns="http://www.w3.org/2000/svg">
<g id="Layer_1" clip-path="url(#clip0_895_10874)">
<g id="Group">
<path id="Vector" d="M12.0002 4.87215C12.4489 4.87215 12.8128 4.50818 12.8128 4.05948V0.812667C12.8128 0.363967 12.4489 0 12.0002 0C11.5515 0 11.1875 0.363967 11.1875 0.812667V4.05948C11.1875 4.50818 11.5515 4.87215 12.0002 4.87215Z" fill="#FEB137"/>
<path id="Vector_2" d="M5.80936 6.96034C6.12647 7.27745 6.64128 7.27745 6.95839 6.96034C7.2755 6.64324 7.2755 6.12842 6.95839 5.81131L4.66225 3.51517C4.34515 3.19807 3.83033 3.19807 3.51322 3.51517C3.19611 3.83228 3.19611 4.3471 3.51322 4.66421L5.80936 6.96034Z" fill="#FEB137"/>
<path id="Vector_3" d="M4.87215 12.0002C4.87215 11.5515 4.50818 11.1875 4.05948 11.1875H0.812667C0.363967 11.1875 0 11.5515 0 12.0002C0 12.4489 0.363967 12.8128 0.812667 12.8128H4.05948C4.50818 12.8128 4.87215 12.4489 4.87215 12.0002Z" fill="#FEB137"/>
<path id="Vector_4" d="M5.80936 17.0406L3.51322 19.3367C3.19611 19.6538 3.19611 20.1686 3.51322 20.4857C3.83033 20.8028 4.34515 20.8028 4.66225 20.4857L6.95839 18.1896C7.2755 17.8725 7.2755 17.3577 6.95839 17.0406C6.64128 16.7235 6.12647 16.7235 5.80936 17.0406Z" fill="#FEB137"/>
<path id="Vector_5" d="M12.0002 19.1279C11.5515 19.1279 11.1875 19.4919 11.1875 19.9406V23.1874C11.1875 23.6361 11.5515 24.0001 12.0002 24.0001C12.4489 24.0001 12.8128 23.6361 12.8128 23.1874V19.9406C12.8128 19.4919 12.4489 19.1279 12.0002 19.1279Z" fill="#FEB137"/>
<path id="Vector_6" d="M18.1896 17.0406C17.8725 16.7235 17.3577 16.7235 17.0406 17.0406C16.7235 17.3577 16.7235 17.8725 17.0406 18.1896L19.3367 20.4857C19.6538 20.8028 20.1686 20.8028 20.4857 20.4857C20.8028 20.1686 20.8028 19.6538 20.4857 19.3367L18.1896 17.0406Z" fill="#FEB137"/>
<path id="Vector_7" d="M23.1864 11.1875H19.9396C19.4909 11.1875 19.127 11.5515 19.127 12.0002C19.127 12.4489 19.4909 12.8128 19.9396 12.8128H23.1864C23.6351 12.8128 23.9991 12.4489 23.9991 12.0002C23.9991 11.5515 23.6351 11.1875 23.1864 11.1875Z" fill="#FEB137"/>
<path id="Vector_8" d="M18.1896 6.96034L20.4857 4.66421C20.8028 4.3471 20.8028 3.83228 20.4857 3.51517C20.1686 3.19807 19.6538 3.19807 19.3367 3.51517L17.0406 5.81131C16.7235 6.12842 16.7235 6.64324 17.0406 6.96034C17.3577 7.27745 17.8725 7.27745 18.1896 6.96034Z" fill="#FEB137"/>
<path id="Vector_9" d="M12.8386 17.1806C15.7004 16.7161 17.6438 14.0196 17.1793 11.1577C16.7147 8.29592 14.0182 6.35254 11.1564 6.81708C8.29457 7.28162 6.35119 9.97816 6.81573 12.84C7.28027 15.7018 9.97681 17.6452 12.8386 17.1806Z" fill="#FEB137"/>
</g>
</g>
<defs>
<clipPath id="clip0_895_10874">
<rect width="24" height="24" fill="white"/>
</clipPath>
</defs>
</svg>
