<svg width="24" height="25" viewBox="0 0 24 25" fill="none" xmlns="http://www.w3.org/2000/svg">
<circle cx="12.5" cy="7.5" r="6.5" fill="white"/>
<path d="M12.5408 0C8.54078 0 5.30078 3.24 5.30078 7.24C5.30078 8.83 5.82078 10.29 6.68078 11.48C8.00078 13.29 10.1308 14.48 12.5408 14.48C15.4508 14.48 17.9608 12.76 19.1008 10.28C19.5308 9.35 19.7808 8.32 19.7808 7.24C19.7808 3.24 16.5408 0 12.5408 0ZM16.8808 10.05C15.9608 11.47 14.3608 12.42 12.5408 12.42C11.3508 12.42 10.2708 12.01 9.40078 11.33C8.84078 10.89 8.36078 10.34 8.02078 9.71C8.38078 10.07 8.94078 10.19 9.42078 9.94C10.0208 9.64 10.2608 8.9 9.95078 8.3C9.64078 7.7 8.91078 7.46 8.31078 7.77C7.88078 7.99 7.64078 8.43 7.65078 8.88C7.48078 8.36 7.36078 7.82 7.36078 7.25C7.36078 4.39 9.68078 2.08 12.5308 2.08C15.3808 2.08 17.7008 4.4 17.7008 7.25C17.7008 8.29 17.3908 9.25 16.8608 10.06L16.8808 10.05Z" fill="#4438E5"/>
<path d="M11.5817 8.82999C10.9817 9.12999 10.7417 9.86999 11.0517 10.47C11.2017 10.76 11.4417 10.96 11.7317 11.06C12.0317 11.17 12.3817 11.16 12.6917 11.01C12.8017 10.95 12.8817 10.87 12.9717 10.79C13.3517 10.43 13.4717 9.85999 13.2217 9.36999C12.9217 8.76999 12.1817 8.52999 11.5817 8.83999V8.82999Z" fill="#4438E5"/>
<path d="M11.0205 5.01989C10.7205 4.41989 9.98049 4.17989 9.38049 4.48989C8.78049 4.79989 8.54049 5.52989 8.85049 6.12989C9.15049 6.72989 9.89049 6.96989 10.4905 6.65989C11.0905 6.35989 11.3305 5.61989 11.0205 5.01989Z" fill="#4438E5"/>
<path d="M24 16.42C23.99 13.17 22.22 10.99 19.1 10.29C17.95 12.77 15.45 14.49 12.54 14.49C10.12 14.49 7.99 13.31 6.68 11.49C3.29 11.98 0.09 13.94 0 17.59V24.11H24V16.42Z" fill="url(#paint0_linear_140_96)"/>
<path d="M11.5893 20.2001V21.3001H13.4893V20.2001C13.4893 18.9901 14.3493 17.5501 15.3893 17.5501H17.2893V15.8101H7.7793V17.5501H9.6793C10.7293 17.5501 11.5793 18.9901 11.5793 20.2001H11.5893Z" fill="#4438E5"/>
<defs>
<linearGradient id="paint0_linear_140_96" x1="0" y1="17.2" x2="24" y2="17.2" gradientUnits="userSpaceOnUse">
<stop stop-color="#0468FF"/>
<stop offset="1" stop-color="#5CE8FF"/>
</linearGradient>
</defs>
</svg>
