<svg width="24" height="24" viewBox="0 0 24 24" fill="none" xmlns="http://www.w3.org/2000/svg">
<path d="M18.6233 4.96462H17.9692C16.4492 1.51548 13.0919 -0.444035 9.39777 0.0858329C6.60798 0.475736 4.53968 2.00536 3.22174 4.59471C3.16402 4.71468 3.1063 4.83465 3.04858 4.96462H2.41366C2.18278 4.96462 2 5.15457 2 5.39451V11.593C2 11.8329 2.18278 12.0229 2.41366 12.0229H4.10678C4.1645 12.0229 4.2126 12.0129 4.2607 11.9929C4.76094 12.0429 5.28042 12.0329 5.81914 12.0629C4.38576 9.66345 4.38576 7.32403 5.7999 4.96462H4.53006C5.5113 2.91513 8.06059 0.955617 11.4084 1.37551C12.4858 1.51548 13.4863 1.89538 14.3809 2.52523C15.2756 3.15507 15.9875 3.96487 16.5262 4.97462H15.189C15.949 6.05435 16.2761 7.23406 16.2761 8.50374C16.2761 9.77343 15.9394 10.9531 15.1986 12.0229C15.747 12.0229 16.2472 12.0429 16.7571 12.0229C16.7859 12.0229 16.8052 12.0229 16.834 12.0229C16.8725 12.0329 16.9014 12.0429 16.9398 12.0429H18.633C18.8638 12.0429 19.0466 11.8529 19.0466 11.613V5.41451C19.0466 5.17457 18.8638 4.98462 18.633 4.98462L18.6233 4.96462Z" fill="#4438E5"/>
<path d="M10.5242 12.9427C12.8523 12.9427 14.7282 10.9831 14.7282 8.57375C14.7282 6.16435 12.8427 4.20483 10.5242 4.20483C8.20583 4.20483 6.32031 6.16435 6.32031 8.57375C6.32031 10.9831 8.20583 12.9427 10.5242 12.9427Z" fill="url(#paint0_linear_140_178)"/>
<path d="M15.8251 15.6021C15.8251 15.3821 15.8539 15.1622 15.9213 14.9522C14.738 14.4323 13.0834 14.0324 10.7553 14.0125C10.7553 14.0125 10.7168 14.0125 10.6976 14.0125C10.6784 14.0125 10.6591 14.0125 10.6399 14.0125C3.61729 14.0524 2.65529 17.5716 2.65529 17.5716L2.46289 22.7303H9.10069C9.08145 22.6103 9.06221 22.4803 9.05259 22.3504C9.03335 22.0105 9.02373 21.6705 9.02373 21.3306C9.02373 20.9107 9.03335 20.4808 9.06221 20.0609C9.11031 19.2511 9.46625 18.2514 10.9189 18.0315C11.4287 17.9515 11.929 17.8715 12.4388 17.7915L12.9487 17.7115C13.0834 17.6915 13.2084 17.6815 13.3239 17.6815C13.8626 17.6815 14.3532 17.8815 14.7476 18.2614C14.9496 18.1214 15.1324 17.9915 15.3056 17.8515C15.6519 17.5716 15.9501 17.2317 16.2195 16.9017C15.9501 16.5218 15.8154 16.0819 15.8154 15.6221L15.8251 15.6021Z" fill="url(#paint1_linear_140_178)"/>
<path d="M21.0958 13.1027C20.4224 12.9828 19.7201 12.9028 19.0178 12.8628H18.9024C18.1136 12.8628 17.95 13.4826 17.8731 13.7826C17.6903 14.4824 17.5075 15.1722 17.3151 15.862C17.2959 15.922 17.2959 15.992 17.2862 16.052C17.2862 16.112 17.2574 16.172 17.2574 16.232C17.2574 16.5119 17.3536 16.7618 17.5364 16.9918L17.9404 17.4816C17.4883 18.1215 16.9784 18.7713 16.3723 19.2712C15.9972 19.5711 15.5739 19.8611 15.0256 20.181L14.6023 19.7111C14.3714 19.4512 14.0924 19.3212 13.775 19.3212C13.7076 19.3212 13.6307 19.3212 13.5537 19.3412L13.0342 19.4212C12.5244 19.5111 12.0145 19.5911 11.5046 19.6711C11.0044 19.7411 10.5426 19.931 10.4945 20.7408C10.4753 21.1407 10.4561 21.5406 10.4561 21.9505C10.4561 22.2705 10.4561 22.5904 10.4753 22.9103C10.4753 23.0703 10.5138 23.2202 10.5619 23.3502C10.7158 23.7701 11.0525 24 11.572 24H11.6586C11.8221 24 11.9856 23.97 12.1492 23.96L12.3416 23.94C13.3228 23.8501 14.1982 23.6501 15.0159 23.3502C15.5354 23.1602 16.0356 22.9403 16.507 22.6704C17.1419 22.3004 17.7288 21.8706 18.2675 21.3907L18.3925 21.2807C18.5176 21.1607 18.6523 21.0508 18.7677 20.9308C18.9313 20.7708 19.0948 20.5909 19.2487 20.4109C19.5566 20.061 19.8644 19.7011 20.1338 19.3112C20.4512 18.8613 20.7398 18.3514 21.0284 17.7016C21.4709 16.7118 21.7884 15.6221 21.9712 14.4624C21.9904 14.3524 22 14.2624 22 14.1725C22 13.8425 21.8846 13.2627 21.0765 13.1227L21.0958 13.1027Z" fill="#4438E5"/>
<defs>
<linearGradient id="paint0_linear_140_178" x1="6.31069" y1="8.57375" x2="14.7282" y2="8.57375" gradientUnits="userSpaceOnUse">
<stop stop-color="#0468FF"/>
<stop offset="1" stop-color="#5CE8FF"/>
</linearGradient>
<linearGradient id="paint1_linear_140_178" x1="2.46289" y1="18.3614" x2="16.2291" y2="18.3614" gradientUnits="userSpaceOnUse">
<stop stop-color="#0468FF"/>
<stop offset="1" stop-color="#5CE8FF"/>
</linearGradient>
</defs>
</svg>
