<svg width="24" height="24" viewBox="0 0 24 24" fill="none" xmlns="http://www.w3.org/2000/svg">
<path d="M0 0V21.6751H14.0619C13.2267 20.7472 12.0471 19.59 11.8174 18.2972H11.452V13.2928C12.1201 12.2503 13.0597 11.4058 14.208 10.8636H12.6943V8.99742H15.0327V10.5404C15.7009 10.3215 16.4107 10.2068 17.1415 10.2068C17.6113 10.2068 18.0811 10.2589 18.5299 10.3423V0H0ZM5.79387 18.2972H3.45544V16.431H5.79387V18.2972ZM5.79387 14.5752H3.45544V12.709H5.79387V14.5752ZM5.79387 10.8532H3.45544V8.987H5.79387V10.8532ZM10.4081 18.2868H8.06966V16.4206H10.3559C10.3663 16.3059 10.3976 16.2016 10.4081 16.0869V18.2972V18.2868ZM10.4081 12.6986V14.5648H8.06966V12.6986H10.4081ZM8.06966 10.8532V8.987H10.4081V10.8532H8.06966ZM16.2333 6.32843H2.26535V2.40835H16.2333V6.32843Z" fill="#ADBBC8"/>
<path d="M18.5082 10.3423C18.0593 10.2485 17.6 10.2068 17.1198 10.2068C16.3786 10.2068 15.6792 10.3215 15.011 10.5404C14.7292 10.6342 14.4578 10.7489 14.1863 10.874C12.0463 11.8853 10.5012 13.9705 10.2716 16.4414C10.2507 16.6603 10.2402 16.8793 10.2402 17.1086C10.2402 17.5257 10.282 17.9218 10.3551 18.318C10.5847 19.6004 11.1589 20.7576 11.9941 21.696C13.2572 23.1139 15.0841 24.0001 17.1198 24.0001C20.9197 24.0001 23.9994 20.914 23.9994 17.1086C23.9994 13.7828 21.6401 10.9991 18.4978 10.3632L18.5082 10.3423ZM14.4578 21.6751C12.8814 20.7472 11.8061 19.0582 11.8061 17.0982C11.8061 16.0244 12.1298 15.0339 12.6726 14.1998C13.0484 13.616 13.5391 13.1156 14.1133 12.7194C14.9693 12.1251 16.0028 11.7706 17.1302 11.7706C17.6105 11.7706 18.0698 11.8541 18.5187 11.9792C20.7736 12.5943 22.4543 14.6482 22.4543 17.0982C22.4543 20.0383 20.0742 22.4258 17.1407 22.4258C16.1698 22.4258 15.2616 22.1443 14.4786 21.6855L14.4578 21.6751Z" fill="#ADBBC8"/>
<path d="M21.3896 16.8167H20.5649L21.2643 14.1165H19.9594L19.3435 16.8167H18.4248L17.7462 14.1165H16.5248L15.8463 16.8167H14.9276L14.8441 16.431L14.4265 14.5856L14.3221 14.1165H13.0172L13.1425 14.5856L13.6227 16.431L13.7271 16.8167H12.9023V17.6404H13.9463L14.1133 18.2972L14.6457 20.3406H16.0237L16.7023 17.6404H17.6105L18.2891 20.3406H19.6671L20.3665 17.6404H21.4105V16.8167H21.3896ZM15.3869 18.6204H15.3347L15.1155 17.6508H15.6375L15.3869 18.6204ZM16.8902 16.8167L17.1094 15.9201H17.1616L17.3808 16.8167H16.8902ZM18.9363 18.6204H18.8841L18.6336 17.6404H19.1555L18.9363 18.6204Z" fill="#ADBBC8"/>
</svg>
