<svg width="24" height="24" viewBox="0 0 24 24" fill="none" xmlns="http://www.w3.org/2000/svg">
<path d="M19.8488 2H0V2.03V21.13H13.3336C12.6669 20.78 12.3639 20.31 11.8689 19.75H1.38386V8.47999H18.4751V11C18.9801 11.25 19.4448 11.11 19.8589 11.48V8.47999V2H19.8488Z" fill="#ADBBC8"/>
<path d="M9.92933 10.1101L11.3334 12.7301H14.2689L11.6061 14.3901L12.1718 18.5701L9.92933 16.7201L7.12119 18.0901L7.65656 15.2001L5.38379 13.1601L8.52526 12.7301L9.92933 10.1101Z" fill="#ADBBC8"/>
<path d="M21.748 12.43C21.2934 12.03 20.7884 11.69 20.2328 11.42C19.354 11 18.3742 10.75 17.3338 10.75C15.2327 10.75 13.364 11.72 12.1418 13.22C11.2226 14.36 10.667 15.8 10.667 17.37C10.667 17.49 10.6771 17.61 10.6872 17.73C10.768 19.26 11.3741 20.65 12.3236 21.73C12.859 22.34 13.5054 22.85 14.2226 23.23C15.1519 23.72 16.2024 24 17.3338 24C18.4651 24 19.5156 23.72 20.4449 23.23C20.9197 22.98 21.3541 22.67 21.7581 22.32C23.1319 21.11 24.0006 19.34 24.0006 17.37C24.0006 15.4 23.1319 13.63 21.7581 12.42L21.748 12.43ZM21.748 19.97C21.3642 20.62 20.8591 21.18 20.2328 21.61C20.1621 21.66 20.0813 21.7 20.0005 21.74C19.2227 22.22 18.3136 22.51 17.3237 22.51C16.3338 22.51 15.4348 22.22 14.6469 21.74C13.465 21.02 12.5963 19.84 12.2933 18.46C12.2125 18.11 12.1721 17.76 12.1721 17.39C12.1721 15.9 12.8286 14.56 13.859 13.63C14.7782 12.79 15.9903 12.27 17.3237 12.27C18.4045 12.27 19.4045 12.6 20.2227 13.17C20.849 13.59 21.3541 14.16 21.7379 14.81C22.1925 15.57 22.4652 16.45 22.4652 17.4C22.4652 18.35 22.1925 19.23 21.7379 19.99L21.748 19.97Z" fill="#ADBBC8"/>
<path d="M17.7984 14.8401H16.2832V18.8301H19.9701V17.3301H17.7984V14.8401Z" fill="#ADBBC8"/>
<path d="M5.83896 0H3.77832V3.51H5.83896V0Z" fill="#ADBBC8"/>
<path d="M16.0812 0H14.0205V3.51H16.0812V0Z" fill="#ADBBC8"/>
</svg>
