<svg width="25" height="24" viewBox="0 0 25 24" fill="none" xmlns="http://www.w3.org/2000/svg">
<circle cx="17" cy="17" r="6" fill="white"/>
<path d="M0 0V21.9706H14.4186C13.5623 21.03 12.3527 19.857 12.1172 18.5466H11.7425V13.474C12.4276 12.4172 13.391 11.5612 14.5684 11.0117H13.0163V9.12007H15.4141V10.6841C16.0992 10.4622 16.827 10.3459 17.5763 10.3459C18.058 10.3459 18.5397 10.3988 19 10.4833V0H0ZM5.94085 18.5466H3.5431V16.655H5.94085V18.5466ZM5.94085 14.7739H3.5431V12.8822H5.94085V14.7739ZM5.94085 11.0011H3.5431V9.1095H5.94085V11.0011ZM10.6721 18.536H8.27437V16.6444H10.6186C10.6293 16.5281 10.6614 16.4225 10.6721 16.3062V18.5466V18.536ZM10.6721 12.8717V14.7633H8.27437V12.8717H10.6721ZM8.27437 11.0011V9.1095H10.6721V11.0011H8.27437ZM16.6451 6.41469H2.32282V2.44118H16.6451V6.41469Z" fill="url(#paint0_linear_140_75)"/>
<path d="M18.5104 10.3423C18.0615 10.2485 17.6021 10.2068 17.1219 10.2068C16.3807 10.2068 15.6812 10.3215 15.0131 10.5404C14.7312 10.6342 14.4598 10.7489 14.1884 10.874C12.0482 11.8853 10.5032 13.9705 10.2735 16.4414C10.2526 16.6603 10.2422 16.8792 10.2422 17.1086C10.2422 17.5256 10.2839 17.9218 10.357 18.318C10.5867 19.6003 11.1609 20.7576 11.996 21.6959C13.2592 23.1138 15.0862 24 17.1219 24C20.922 24 24.0017 20.914 24.0017 17.1086C24.0017 13.7828 21.6423 10.9991 18.5 10.3632L18.5104 10.3423ZM14.4598 21.6751C12.8834 20.7472 11.8081 19.0582 11.8081 17.0982C11.8081 16.0243 12.1318 15.0339 12.6746 14.1998C13.0505 13.616 13.5411 13.1156 14.1153 12.7194C14.9714 12.1251 16.0049 11.7706 17.1324 11.7706C17.6126 11.7706 18.0719 11.854 18.5208 11.9792C20.7758 12.5943 22.4566 14.6481 22.4566 17.0982C22.4566 20.0382 20.0763 22.4257 17.1428 22.4257C16.1719 22.4257 15.2637 22.1442 14.4807 21.6855L14.4598 21.6751Z" fill="#4438E5"/>
<path d="M21.3917 16.8167H20.567L21.2665 14.1165H19.9615L19.3456 16.8167H18.4269L17.7483 14.1165H16.5269L15.8483 16.8167H14.9296L14.8461 16.431L14.4285 14.5856L14.3241 14.1165H13.0191L13.1444 14.5856L13.6246 16.431L13.729 16.8167H12.9043V17.6403H13.9483L14.1153 18.2972L14.6477 20.3406H16.0258L16.7043 17.6403H17.6126L18.2912 20.3406H19.6692L20.3687 17.6403H21.4126V16.8167H21.3917ZM15.3889 18.6204H15.3367L15.1175 17.6508H15.6395L15.3889 18.6204ZM16.8922 16.8167L17.1115 15.9201H17.1637L17.3829 16.8167H16.8922ZM18.9384 18.6204H18.8862L18.6357 17.6403H19.1577L18.9384 18.6204Z" fill="#4438E5"/>
<defs>
<linearGradient id="paint0_linear_140_75" x1="0" y1="10.98" x2="18.9786" y2="10.98" gradientUnits="userSpaceOnUse">
<stop stop-color="#0468FF"/>
<stop offset="1" stop-color="#5CE8FF"/>
</linearGradient>
</defs>
</svg>
