<svg width="24" height="24" viewBox="0 0 24 24" fill="none" xmlns="http://www.w3.org/2000/svg">
<circle cx="18" cy="15" r="3" fill="white"/>
<path d="M24 16.3175C24 12.3274 21.33 9.94531 16.75 9.94531C15.71 9.97509 14.68 10.1537 13.68 10.4912C12.8 10.7592 11.91 10.9577 11 11.0768C11 12.8039 11 14.5309 11 16.248C11 16.4763 11.11 16.4962 11.28 16.5061C12.45 16.5855 13.61 16.7542 14.7 17.191C15.11 17.3597 15.52 17.5781 15.85 17.8659C16.36 18.3026 16.3 18.8188 15.76 19.2257C15.17 19.6724 14.49 19.9304 13.78 20.0991C11.1 20.7245 8.42 20.7245 5.76 19.9701C5.34 19.851 4.95 19.6326 4.55 19.454C4.44 19.4044 4.35 19.325 4.25 19.2555C3.65 18.7691 3.65 18.2034 4.27 17.7369C4.98 17.191 5.84 16.9925 6.69 16.784C6.87 16.7344 6.86 16.8634 6.86 16.9825C6.86 17.4093 6.87 17.846 6.86 18.2728C6.86 18.4515 6.9 18.521 7.09 18.5111C7.69 18.5111 8.28 18.5111 8.92 18.5111V11.2356C8.76 11.2356 8.59 11.2555 8.43 11.2456C4.46 11.2456 0.05 13.2207 0 17.5284V23.9999H24V16.3671C24 16.3671 24 16.3374 24 16.3175ZM17.96 17.4788C16.53 17.4788 15.45 16.3771 15.47 14.9379C15.49 13.5979 16.61 12.5061 17.99 12.4962C19.33 12.4962 20.49 13.6376 20.48 14.9676C20.48 16.3175 19.31 17.4788 17.96 17.4689V17.4788Z" fill="url(#paint0_linear_140_168)"/>
<path d="M14.6901 17.201C13.6001 16.7643 12.4401 16.5955 11.2701 16.5161C11.1001 16.5062 10.9901 16.4863 10.9901 16.2581C10.9901 14.531 11.0001 12.804 10.9901 11.0868C10.9901 10.0645 10.9901 9.03225 10.9701 8.00992C10.9601 7.35483 11.1601 7.03722 11.7401 6.7593C13.5601 5.89578 15.3501 4.9727 17.2001 4.0397C14.4301 2.68982 11.7001 1.3598 8.92015 0V18.5112C8.28015 18.5112 7.68015 18.5112 7.09015 18.5112C6.90015 18.5112 6.86015 18.4417 6.86015 18.2729C6.86015 17.8461 6.86015 17.4094 6.86015 16.9826C6.86015 16.8734 6.88015 16.7444 6.69015 16.7841C5.84015 16.9925 4.99015 17.1911 4.27015 17.737C3.65015 18.2134 3.64015 18.7692 4.25015 19.2556C4.34015 19.335 4.44015 19.4045 4.55015 19.4541C4.95015 19.6327 5.34015 19.8511 5.76015 19.9702C8.42015 20.7246 11.1001 20.7246 13.7801 20.0992C14.4901 19.9305 15.1701 19.6724 15.7601 19.2258C16.3001 18.8188 16.3501 18.3027 15.8501 17.866C15.5201 17.5781 15.1101 17.3499 14.7001 17.1911L14.6901 17.201Z" fill="#4438E5"/>
<defs>
<linearGradient id="paint0_linear_140_168" x1="0" y1="16.9726" x2="24" y2="16.9726" gradientUnits="userSpaceOnUse">
<stop stop-color="#0468FF"/>
<stop offset="1" stop-color="#5CE8FF"/>
</linearGradient>
</defs>
</svg>
