<svg width="25" height="24" viewBox="0 0 25 24" fill="none" xmlns="http://www.w3.org/2000/svg">
<circle cx="17.5" cy="17.5" r="5.5" fill="white"/>
<path d="M19.8488 2H0V2.03V21.13H13.3336C12.6669 20.78 12.3639 20.31 11.8689 19.75H1.38386V8.47999H18.4751V11C18.9801 11.25 19.4448 11.11 19.8589 11.48V8.47999V2H19.8488Z" fill="url(#paint0_linear_140_10)"/>
<path d="M9.92835 10.1101L11.3324 12.7301H14.2679L11.6051 14.3901L12.1708 18.5701L9.92835 16.7201L7.12022 18.0901L7.65558 15.2001L5.38281 13.1601L8.52428 12.7301L9.92835 10.1101Z" fill="url(#paint1_linear_140_10)"/>
<path d="M21.749 12.43C21.2944 12.03 20.7894 11.69 20.2338 11.42C19.355 11 18.3752 10.75 17.3348 10.75C15.2337 10.75 13.365 11.72 12.1427 13.22C11.2235 14.36 10.668 15.8 10.668 17.37C10.668 17.49 10.6781 17.61 10.6882 17.73C10.769 19.26 11.3751 20.65 12.3246 21.73C12.8599 22.34 13.5064 22.85 14.2236 23.23C15.1529 23.72 16.2034 24 17.3348 24C18.4661 24 19.5166 23.72 20.4459 23.23C20.9207 22.98 21.355 22.67 21.7591 22.32C23.1328 21.11 24.0015 19.34 24.0015 17.37C24.0015 15.4 23.1328 13.63 21.7591 12.42L21.749 12.43ZM21.749 19.97C21.3651 20.62 20.8601 21.18 20.2338 21.61C20.1631 21.66 20.0823 21.7 20.0015 21.74C19.2237 22.22 18.3146 22.51 17.3247 22.51C16.3347 22.51 15.4357 22.22 14.6478 21.74C13.466 21.02 12.5973 19.84 12.2943 18.46C12.2135 18.11 12.173 17.76 12.173 17.39C12.173 15.9 12.8296 14.56 13.8599 13.63C14.7792 12.79 15.9913 12.27 17.3247 12.27C18.4055 12.27 19.4055 12.6 20.2237 13.17C20.85 13.59 21.355 14.16 21.7389 14.81C22.1934 15.57 22.4662 16.45 22.4662 17.4C22.4662 18.35 22.1934 19.23 21.7389 19.99L21.749 19.97Z" fill="#4438E5"/>
<path d="M17.8003 14.8401H16.2852V18.8301H19.9721V17.3301H17.8003V14.8401Z" fill="#4438E5"/>
<path d="M5.83799 0H3.77734V3.51H5.83799V0Z" fill="url(#paint2_linear_140_10)"/>
<path d="M16.0802 0H14.0195V3.51H16.0802V0Z" fill="url(#paint3_linear_140_10)"/>
<defs>
<linearGradient id="paint0_linear_140_10" x1="0" y1="11.56" x2="19.8488" y2="11.56" gradientUnits="userSpaceOnUse">
<stop stop-color="#0468FF"/>
<stop offset="1" stop-color="#5CE8FF"/>
</linearGradient>
<linearGradient id="paint1_linear_140_10" x1="5.38281" y1="14.3401" x2="13.8779" y2="14.3401" gradientUnits="userSpaceOnUse">
<stop stop-color="#0468FF"/>
<stop offset="1" stop-color="#5CE8FF"/>
</linearGradient>
<linearGradient id="paint2_linear_140_10" x1="3.77734" y1="1.76" x2="5.83799" y2="1.76" gradientUnits="userSpaceOnUse">
<stop stop-color="#0468FF"/>
<stop offset="1" stop-color="#5CE8FF"/>
</linearGradient>
<linearGradient id="paint3_linear_140_10" x1="14.0195" y1="1.76" x2="16.0802" y2="1.76" gradientUnits="userSpaceOnUse">
<stop stop-color="#0468FF"/>
<stop offset="1" stop-color="#5CE8FF"/>
</linearGradient>
</defs>
</svg>
