<svg width="24" height="24" viewBox="0 0 24 24" fill="none" xmlns="http://www.w3.org/2000/svg">
<path d="M18.5779 4.93875H17.9255C16.4097 1.50758 13.0615 -0.441722 9.37754 0.0853857C6.59537 0.473257 4.53273 1.99491 3.2184 4.57077C3.16084 4.69012 3.10327 4.80946 3.04571 4.93875H2.41253C2.18228 4.93875 2 5.12771 2 5.3664V11.5326C2 11.7713 2.18228 11.9602 2.41253 11.9602H4.10102C4.15858 11.9602 4.20655 11.9503 4.25451 11.9304C4.75339 11.9801 5.27144 11.9702 5.80869 12C4.37923 9.6131 4.37923 7.28587 5.7895 4.93875H4.52314C5.50169 2.89994 8.04402 0.950637 11.3826 1.36835C12.4571 1.50758 13.4549 1.88551 14.3471 2.51207C15.2393 3.13863 15.9492 3.94421 16.4865 4.9487H15.1529C15.9108 6.0228 16.237 7.19636 16.237 8.45943C16.237 9.7225 15.9012 10.8961 15.1625 11.9602C15.7094 11.9602 16.2082 11.9801 16.7167 11.9602C16.7455 11.9602 16.7647 11.9602 16.7935 11.9602C16.8318 11.9702 16.8606 11.9801 16.899 11.9801H18.5875C18.8177 11.9801 19 11.7911 19 11.5525V5.3863C19 5.14761 18.8177 4.95864 18.5875 4.95864L18.5779 4.93875Z" fill="#A8BDCC"/>
<path d="M10.5 13C12.992 13 15 10.9817 15 8.5C15 6.01831 12.9817 4 10.5 4C8.01831 4 6 6.01831 6 8.5C6 10.9817 8.01831 13 10.5 13Z" fill="#A8BDCC"/>
<path d="M15.5986 15.6411C15.5986 15.414 15.628 15.1869 15.6965 14.9702C14.4923 14.4335 12.8084 14.0206 10.4392 14C10.4392 14 10.4 14 10.3804 14C10.3608 14 10.3413 14 10.3217 14C3.17482 14.0413 2.1958 17.6743 2.1958 17.6743L2 23H8.75524C8.73566 22.8761 8.71608 22.742 8.70629 22.6078C8.68671 22.2569 8.67692 21.906 8.67692 21.555C8.67692 21.1216 8.68671 20.6778 8.71608 20.2443C8.76503 19.4083 9.12727 18.3761 10.6056 18.1491C11.1245 18.0665 11.6336 17.9839 12.1524 17.9014L12.6713 17.8188C12.8084 17.7982 12.9357 17.7878 13.0531 17.7878C13.6014 17.7878 14.1007 17.9943 14.5021 18.3865C14.7077 18.242 14.8937 18.1078 15.0699 17.9633C15.4224 17.6743 15.7259 17.3234 16 16.9828C15.7259 16.5906 15.5888 16.1365 15.5888 15.6617L15.5986 15.6411Z" fill="#A8BDCC"/>
<path d="M21.06 13.237C20.36 13.1185 19.63 13.0395 18.9 13H18.78C17.96 13 17.79 13.6122 17.71 13.9084C17.52 14.5996 17.33 15.281 17.13 15.9623C17.11 16.0215 17.11 16.0907 17.1 16.1499C17.1 16.2092 17.07 16.2684 17.07 16.3276C17.07 16.6041 17.17 16.851 17.36 17.0781L17.78 17.5619C17.31 18.1939 16.78 18.8357 16.15 19.3294C15.76 19.6257 15.32 19.912 14.75 20.228L14.31 19.7639C14.07 19.5072 13.78 19.3788 13.45 19.3788C13.38 19.3788 13.3 19.3788 13.22 19.3986L12.68 19.4776C12.15 19.5664 11.62 19.6454 11.09 19.7244C10.57 19.7935 10.09 19.9811 10.04 20.781C10.02 21.1759 10 21.5709 10 21.9758C10 22.2917 10 22.6077 10.02 22.9237C10.02 23.0817 10.06 23.2298 10.11 23.3582C10.27 23.7729 10.62 24 11.16 24H11.25C11.42 24 11.59 23.9704 11.76 23.9605L11.96 23.9408C12.98 23.8519 13.89 23.6544 14.74 23.3582C15.28 23.1706 15.8 22.9533 16.29 22.6867C16.95 22.3214 17.56 21.8968 18.12 21.4228L18.25 21.3142C18.38 21.1957 18.52 21.0871 18.64 20.9686C18.81 20.8106 18.98 20.6329 19.14 20.4551C19.46 20.1095 19.78 19.754 20.06 19.3689C20.39 18.9246 20.69 18.421 20.99 17.7792C21.45 16.8016 21.78 15.7253 21.97 14.5799C21.99 14.4713 22 14.3824 22 14.2935C22 13.9677 21.88 13.395 21.04 13.2567L21.06 13.237Z" fill="#A8BDCC"/>
</svg>
