<svg width="24" height="24" viewBox="0 0 24 24" fill="none" xmlns="http://www.w3.org/2000/svg">
<path d="M21.612 9.80727C20.5652 9.80727 19.6929 10.4836 19.3766 11.4109H12.8669V7.62545H16.2581C16.5743 8.55273 17.4575 9.22909 18.4934 9.22909C19.8019 9.22909 20.8705 8.18182 20.8705 6.88364C20.8705 5.58545 19.8128 4.53818 18.4934 4.53818C17.4466 4.53818 16.5743 5.21455 16.2581 6.14182H12.8669V1.53818C13.8155 1.60364 14.7206 1.8 15.582 2.09455C15.8001 2.17091 16.0182 2.25818 16.2363 2.35636L17.2285 1.14545C15.8982 0.523636 14.4262 0.130909 12.8669 0.0327273C12.6161 0.0218182 12.3653 0 12.1036 0C11.8419 0 11.602 0.0218182 11.3403 0.0327273C7.14221 0.294545 3.52204 2.67273 1.55929 6.12C1.28669 6.6 1.0468 7.10182 0.839618 7.62545C0.370741 8.80364 0.0981372 10.08 0.0327124 11.4109C0.0327124 11.6073 0 11.8036 0 12C0 12.3055 0.0218083 12.6109 0.0436165 12.9164C0.141754 14.2473 0.457974 15.5236 0.959564 16.7018C1.18855 17.2255 1.46115 17.7273 1.75557 18.2073C3.75102 21.48 7.27306 23.7164 11.3512 23.9673C11.602 23.9782 11.8528 24 12.1145 24C12.3762 24 12.6161 23.9782 12.8778 23.9673C14.6661 23.8582 16.3344 23.3455 17.8283 22.5491L16.5307 21.5018C16.2254 21.6436 15.92 21.7964 15.5929 21.9055C14.7315 22.2 13.8155 22.3964 12.8778 22.4618V18.1964H16.269C16.5852 19.1236 17.4684 19.8 18.5043 19.8C19.8128 19.8 20.8814 18.7527 20.8814 17.4545C20.8814 16.1564 19.8237 15.1091 18.5043 15.1091C17.4575 15.1091 16.5852 15.7855 16.269 16.7127H12.8778V12.9273H19.3876C19.7038 13.8545 20.587 14.5309 21.6229 14.5309C22.9314 14.5309 24 13.4836 24 12.1855C24 10.8873 22.9423 9.84 21.6229 9.84L21.612 9.80727ZM18.4934 6.02182C18.9623 6.02182 19.3548 6.40364 19.3548 6.87273C19.3548 7.34182 18.9732 7.72364 18.4934 7.72364C18.0136 7.72364 17.632 7.34182 17.632 6.87273C17.632 6.40364 18.0136 6.02182 18.4934 6.02182ZM8.63607 2.09455C7.86188 3.13091 7.20763 4.51636 6.73875 6.12H3.33667C4.60154 4.26545 6.46615 2.84727 8.63607 2.09455ZM2.49705 7.62545H6.37892C6.13903 8.80364 5.99727 10.08 5.96456 11.4109H1.54839C1.62472 10.0691 1.95184 8.79273 2.49705 7.62545ZM2.6497 16.7018C2.06088 15.5455 1.67924 14.2691 1.55929 12.9164H5.96456C6.01908 14.2473 6.17174 15.5236 6.43344 16.7018H2.6388H2.6497ZM3.57656 18.2073H6.83689C7.29487 19.68 7.9055 20.9455 8.62517 21.9164C6.5861 21.2073 4.83053 19.9091 3.56565 18.2073H3.57656ZM11.3512 22.3309C10.2608 21.84 9.18128 20.3564 8.4398 18.2073H11.3512V22.3309ZM11.3512 16.7127H8.00363C7.73103 15.5673 7.54566 14.2909 7.48024 12.9273H11.3512V16.7127ZM11.3512 11.4218H7.48024C7.51295 10.0582 7.67651 8.79273 7.92731 7.63636H11.3512V11.4218ZM11.3512 6.13091H8.33076C9.07224 3.81818 10.2063 2.20364 11.3512 1.69091V6.13091ZM18.4934 16.6036C18.9623 16.6036 19.3548 16.9855 19.3548 17.4545C19.3548 17.9236 18.9732 18.3055 18.4934 18.3055C18.0136 18.3055 17.632 17.9236 17.632 17.4545C17.632 16.9855 18.0136 16.6036 18.4934 16.6036ZM21.612 13.0145C21.1431 13.0145 20.7506 12.6327 20.7506 12.1636C20.7506 11.6945 21.1322 11.3127 21.612 11.3127C22.0918 11.3127 22.4734 11.6945 22.4734 12.1636C22.4734 12.6327 22.0918 13.0145 21.612 13.0145Z" fill="#A8BDCC"/>
</svg>
