<svg width="24" height="24" viewBox="0 0 24 24" fill="none" xmlns="http://www.w3.org/2000/svg">
<path d="M21.7475 11.43V8.52V1.49H17.6162V0H15.3636V1.49H6.39394V0H4.14141V1.49H0V1.52V22.23H14.2222C15.1515 22.72 16.202 23 17.3333 23C18.4646 23 19.5152 22.72 20.4444 22.23C20.9192 21.98 21.3535 21.67 21.7576 21.32C23.1313 20.11 24 18.34 24 16.37C24 14.4 23.1313 12.63 21.7576 11.42L21.7475 11.43ZM1.51515 20.73V8.51H20.2323V10.42C19.3535 10 18.3737 9.75 17.3333 9.75C15.2323 9.75 13.3636 10.72 12.1414 12.22L10.8081 9.54L9.40404 12.37L6.26263 12.82L8.53535 15.02L8 18.13L10.6768 16.73C10.7576 18.26 11.3636 19.65 12.3131 20.73H1.51515ZM21.7475 18.96C21.3636 19.61 20.8586 20.17 20.2323 20.6C20.1616 20.65 20.0808 20.69 20 20.73C19.2222 21.21 18.3131 21.5 17.3232 21.5C16.3333 21.5 15.4343 21.21 14.6465 20.73C13.4646 20.01 12.596 18.83 12.2929 17.45C12.2121 17.1 12.1717 16.75 12.1717 16.38C12.1717 14.89 12.8283 13.55 13.8586 12.62C14.7778 11.78 15.9899 11.26 17.3232 11.26C18.404 11.26 19.404 11.59 20.2222 12.16C20.8485 12.58 21.3535 13.15 21.7374 13.8C22.1919 14.56 22.4646 15.44 22.4646 16.39C22.4646 17.34 22.1919 18.22 21.7374 18.98L21.7475 18.96Z" fill="#A8BDCC"/>
<path d="M17.6438 14H16V18H20V16.4962H17.6438V14Z" fill="#A8BDCC"/>
</svg>
