<svg width="24" height="24" viewBox="0 0 24 24" fill="none" xmlns="http://www.w3.org/2000/svg">
<path d="M12.0078 18.22C15.3215 18.22 18.0078 15.5337 18.0078 12.22C18.0078 8.90626 15.3215 6.21997 12.0078 6.21997C8.6941 6.21997 6.00781 8.90626 6.00781 12.22C6.00781 15.5337 8.6941 18.22 12.0078 18.22Z" fill="#4438E5"/>
<path d="M20.4084 13.08C20.4584 12.74 20.4784 12.38 20.4784 12C20.4784 11.62 20.4584 11.27 20.3984 10.92L22.7884 9.11C22.9984 8.95 23.0584 8.64 22.9284 8.41L20.6684 4.61C20.5284 4.36 20.2284 4.28 19.9684 4.36L17.1484 5.46C16.5584 5.02 15.9384 4.66 15.2384 4.38L14.8184 1.47C14.7684 1.2 14.5384 1 14.2484 1H9.7284C9.4484 1 9.21841 1.19 9.17841 1.47L8.75841 4.38C8.05841 4.65 7.42841 5.03 6.84841 5.46L4.02841 4.36C3.76841 4.27 3.47841 4.36 3.32841 4.61L1.08841 8.41C0.948405 8.65 0.998405 8.95 1.22841 9.11L3.61841 10.92C3.55841 11.26 3.50841 11.64 3.50841 12C3.50841 12.36 3.52841 12.73 3.58841 13.08L1.20841 14.89C0.998405 15.05 0.938405 15.36 1.06841 15.59L3.32841 19.39C3.46841 19.64 3.76841 19.72 4.02841 19.64L6.84841 18.54C7.43841 18.98 8.05841 19.34 8.75841 19.62L9.17841 22.53C9.23841 22.8 9.45841 23 9.74841 23H14.2684C14.5484 23 14.7884 22.81 14.8184 22.53L15.2384 19.62C15.9384 19.35 16.5684 18.98 17.1484 18.54L19.9684 19.64C20.2284 19.73 20.5184 19.64 20.6684 19.39L22.9284 15.59C23.0684 15.34 23.0084 15.05 22.7884 14.89L20.4184 13.08H20.4084ZM11.9984 16.13C9.66841 16.13 7.75841 14.27 7.75841 12.01C7.75841 9.75 9.66841 7.88 11.9984 7.88C14.3284 7.88 16.2384 9.74 16.2384 12.01C16.2384 14.28 14.3284 16.13 11.9984 16.13Z" fill="url(#paint0_linear_140_193)"/>
<defs>
<linearGradient id="paint0_linear_140_193" x1="0.998405" y1="12" x2="22.9984" y2="12" gradientUnits="userSpaceOnUse">
<stop stop-color="#0468FF"/>
<stop offset="1" stop-color="#5CE8FF"/>
</linearGradient>
</defs>
</svg>
