<svg width="24" height="24" viewBox="0 0 24 24" fill="none" xmlns="http://www.w3.org/2000/svg">
<path d="M13.6804 10.5361C13.4904 10.5959 13.2904 10.6457 13.1004 10.6955C13.3704 10.337 13.4404 9.84899 13.2304 9.42077C12.9304 8.82326 12.2004 8.58426 11.5904 8.88301C10.9904 9.18177 10.7504 9.90874 11.0504 10.5162C11.1704 10.7552 11.3704 10.9245 11.6004 11.034C10.8704 11.1535 10.1404 11.2332 9.40039 11.2731C10.2704 11.9403 11.3504 12.3585 12.5404 12.3585C14.3604 12.3585 15.9504 11.4125 16.8804 9.99836C16.8404 9.99836 16.8004 9.99836 16.7504 9.99836C15.7104 10.0282 14.6804 10.2075 13.6804 10.5461V10.5361Z" fill="#A8BDCC"/>
<path d="M9.3998 11.2631C8.8898 10.8647 8.4498 10.3768 8.1198 9.82904C8.4798 10.1079 8.9798 10.1875 9.4198 9.96846C10.0198 9.6697 10.2598 8.94273 9.9598 8.33526C9.6598 7.72779 8.9298 7.49875 8.3198 7.7975C7.8998 8.00663 7.6598 8.43485 7.6598 8.88298C7.4698 8.35518 7.3698 7.7975 7.3698 7.19999C7.3698 4.35186 9.6898 2.05145 12.5398 2.05145C15.3898 2.05145 17.7098 4.36182 17.7098 7.19999C17.7098 8.23568 17.3998 9.19169 16.8698 9.99833C17.6698 9.99833 18.4198 10.088 19.0998 10.2373C19.5298 9.3112 19.7798 8.28547 19.7798 7.20995C19.7798 3.22655 16.5398 0 12.5398 0C8.5398 0 5.2998 3.22655 5.2998 7.20995C5.2998 8.79335 5.8198 10.2473 6.6798 11.4324C7.2698 11.3427 7.8598 11.3029 8.4398 11.3029C8.7598 11.3029 9.0798 11.2929 9.3998 11.273V11.2631Z" fill="#A8BDCC"/>
<path d="M9.39962 4.54122C8.79962 4.83997 8.55962 5.56694 8.85962 6.17441C9.15962 6.78188 9.88962 7.01092 10.4996 6.71217C11.0996 6.41341 11.3396 5.68644 11.0396 5.07897C10.7396 4.48146 10.0096 4.24246 9.39962 4.54122Z" fill="#A8BDCC"/>
<path d="M24 16.3418C23.99 13.1053 22.22 10.9343 19.1 10.2273C17.95 12.697 15.45 14.4099 12.54 14.4099C10.12 14.4099 7.99 13.2348 6.68 11.4223C3.29 11.9202 0.09 13.8721 0 17.507V23.9999H24V16.3418ZM17.3 17.4671H15.4C15 17.4671 14.64 17.6763 14.33 17.9949C13.92 18.3335 13.64 18.8314 13.6 19.3991C13.54 19.6381 13.5 19.8771 13.5 20.1161V21.2115H11.6V20.1161C11.6 19.887 11.56 19.6381 11.5 19.3991C11.45 18.8414 11.18 18.3435 10.77 17.9949C10.46 17.6763 10.1 17.4671 9.7 17.4671H7.8V15.7343H17.32V17.4671H17.3Z" fill="#A8BDCC"/>
</svg>
