<svg width="24" height="24" viewBox="0 0 24 24" fill="none" xmlns="http://www.w3.org/2000/svg">
<path d="M18.5089 10.3513V0H0V21.6939H11.9948C13.2579 23.113 15.0848 24 17.1205 24C20.9204 24 24 20.9113 24 17.1026C24 13.7739 21.6407 10.9878 18.4985 10.3513H18.5089ZM10.3976 12.72V14.5878H8.05916V12.72H10.3976ZM8.05916 10.873V9.00522H10.3976V10.873H8.05916ZM12.6733 10.873V9.00522H15.0117V10.5496C14.7299 10.6435 14.4585 10.7583 14.187 10.8835H12.6733V10.873ZM2.26533 2.42087H16.2331V6.34435H2.26533V2.42087ZM5.79382 18.313H3.45542V16.4452H5.79382V18.313ZM5.79382 14.5878H3.45542V12.72H5.79382V14.5878ZM5.79382 10.8626H3.45542V8.99478H5.79382V10.8626ZM8.0696 18.3026V16.4348H10.2827C10.2619 16.6539 10.2514 16.873 10.2514 17.1026C10.2514 17.52 10.2932 17.9165 10.3662 18.313H8.0696V18.3026ZM17.1309 22.4243C16.1601 22.4243 15.2518 22.1426 14.4689 21.6835C12.8926 20.7548 11.8173 19.0643 11.8173 17.1026C11.8173 16.0278 12.1409 15.0365 12.6838 14.2017C13.0596 13.6174 13.5502 13.1165 14.1244 12.72C14.9804 12.1252 16.0139 11.7704 17.1414 11.7704C17.6216 11.7704 18.0809 11.8539 18.5298 11.9791C20.7847 12.5948 22.4654 14.6504 22.4654 17.1026C22.4654 20.0452 20.0853 22.4348 17.1518 22.4348L17.1309 22.4243Z" fill="#A8BDCC"/>
<path d="M20.2049 16.603L20.8626 14H19.6356L19.0564 16.603H18.1926L17.5546 14H16.4061L15.7681 16.603H14.9043L14.8258 16.2312L14.4331 14.4523L14.335 14H13.108L13.2258 14.4523L13.6773 16.2312L13.7755 16.603H13V17.397H13.9816L14.1387 18.0301L14.6393 20H15.935L16.573 17.397H17.427L18.065 20H19.3607L20.0184 17.397H21V16.603H20.2245H20.2049ZM15.3362 18.3417H15.2871L15.081 17.407H15.5718L15.3362 18.3417ZM16.7497 16.603L16.9558 15.7387H17.0049L17.211 16.603H16.7497ZM18.6736 18.3417H18.6245L18.389 17.397H18.8798L18.6736 18.3417Z" fill="#A8BDCC"/>
</svg>
