<svg width="24" height="25" viewBox="0 0 24 25" fill="none" xmlns="http://www.w3.org/2000/svg">
<path d="M21.7841 1.37988H2.31934V23.0899H21.7841V1.37988Z" fill="#4438E5"/>
<path d="M1 0V24.1H23V0H1ZM20.9048 22.1H18.0448L17.9086 18.62C17.9086 18.62 17.2067 16.25 12.0419 16.22C12.0419 16.22 12.0105 16.22 12 16.22C11.9895 16.22 11.9686 16.22 11.9581 16.22C6.80381 16.25 6.09143 18.62 6.09143 18.62L5.95524 22.1H3.09524V2H20.9048V22.1Z" fill="url(#paint0_linear_140_121)"/>
<path d="M11.9998 15.1599C13.8121 15.1599 15.2788 13.7599 15.2788 12.0299C15.2788 10.2999 13.8121 8.8999 11.9998 8.8999C10.1874 8.8999 8.7207 10.2999 8.7207 12.0299C8.7207 13.7599 10.1874 15.1599 11.9998 15.1599Z" fill="url(#paint1_linear_140_121)"/>
<path d="M15.3415 5.34989C15.9085 5.34989 16.3682 4.91113 16.3682 4.36989C16.3682 3.82865 15.9085 3.38989 15.3415 3.38989L8.65769 3.38989C8.09068 3.38989 7.63102 3.82865 7.63102 4.36989C7.63102 4.91113 8.09068 5.34989 8.65769 5.34989H15.3415Z" fill="url(#paint2_linear_140_121)"/>
<defs>
<linearGradient id="paint0_linear_140_121" x1="1" y1="12.05" x2="23" y2="12.05" gradientUnits="userSpaceOnUse">
<stop stop-color="#0468FF"/>
<stop offset="1" stop-color="#5CE8FF"/>
</linearGradient>
<linearGradient id="paint1_linear_140_121" x1="8.7207" y1="12.0199" x2="15.2788" y2="12.0199" gradientUnits="userSpaceOnUse">
<stop stop-color="#0468FF"/>
<stop offset="1" stop-color="#5CE8FF"/>
</linearGradient>
<linearGradient id="paint2_linear_140_121" x1="7.63102" y1="4.36989" x2="16.3682" y2="4.36989" gradientUnits="userSpaceOnUse">
<stop stop-color="#0468FF"/>
<stop offset="1" stop-color="#5CE8FF"/>
</linearGradient>
</defs>
</svg>
