<svg width="24" height="24" viewBox="0 0 24 24" fill="none" xmlns="http://www.w3.org/2000/svg">
<path d="M24 16.3175C24 12.3274 21.33 9.94531 16.75 9.94531C15.71 9.97509 14.68 10.1537 13.68 10.4912C12.8 10.7592 11.91 10.9577 11 11.0768C11 12.8039 11 14.5309 11 16.248C11 16.4763 11.11 16.4962 11.28 16.5061C12.45 16.5855 13.61 16.7542 14.7 17.191C15.11 17.3597 15.52 17.5781 15.85 17.8659C16.36 18.3026 16.3 18.8188 15.76 19.2257C15.17 19.6724 14.49 19.9304 13.78 20.0991C11.1 20.7245 8.42 20.7245 5.76 19.9701C5.34 19.851 4.95 19.6326 4.55 19.454C4.44 19.4044 4.35 19.325 4.25 19.2555C3.65 18.7691 3.65 18.2034 4.27 17.7369C4.98 17.191 5.84 16.9925 6.69 16.784C6.87 16.7344 6.86 16.8634 6.86 16.9825C6.86 17.4093 6.87 17.846 6.86 18.2728C6.86 18.4515 6.9 18.521 7.09 18.5111C7.69 18.5111 8.28 18.5111 8.92 18.5111V11.2356C8.76 11.2356 8.59 11.2555 8.43 11.2456C4.46 11.2456 0.05 13.2207 0 17.5284V23.9999H24V16.3671C24 16.3671 24 16.3374 24 16.3175ZM17.96 17.4788C16.53 17.4788 15.45 16.3771 15.47 14.9379C15.49 13.5979 16.61 12.5061 17.99 12.4962C19.33 12.4962 20.49 13.6376 20.48 14.9676C20.48 16.3175 19.31 17.4788 17.96 17.4689V17.4788Z" fill="#A8BDCC"/>
<path d="M10.9797 8.00992C10.9697 7.35483 11.1697 7.03722 11.7497 6.7593C13.5697 5.89578 15.3597 4.9727 17.2097 4.0397C14.4397 2.68982 11.7097 1.3598 8.92969 0V11.2357C9.61969 11.2258 10.3197 11.1762 10.9997 11.0868C10.9997 10.0645 10.9997 9.03225 10.9797 8.00992Z" fill="#A8BDCC"/>
</svg>
