<svg width="24" height="24" viewBox="0 0 24 24" fill="none" xmlns="http://www.w3.org/2000/svg">
<path d="M6.38341 0H4.13086V3.50998H6.38341V0Z" fill="url(#paint0_linear_140_10)"/>
<path d="M17.6061 0H15.3535V3.50998H17.6061V0Z" fill="url(#paint1_linear_140_10)"/>
<path d="M21 7H1V21H21V7Z" fill="#4438E5"/>
<path d="M21.7477 1.48999H0V1.51999V22.2299H14.2224C13.4951 21.8499 12.8587 21.3399 12.3234 20.7299H1.51517V8.50996H20.2325V10.4199C20.7881 10.6899 21.2931 11.0299 21.7477 11.4299V8.51996V1.48999Z" fill="url(#paint2_linear_140_10)"/>
<path d="M10.8082 9.55005L9.40414 12.38L6.2627 12.83L8.53545 15.03L8.00009 18.14L10.6769 16.74C10.6769 16.62 10.6567 16.5 10.6567 16.38C10.6567 14.81 11.2122 13.36 12.1314 12.23L10.7981 9.55005H10.8082Z" fill="url(#paint3_linear_140_10)"/>
<path d="M17.5 22C20.5376 22 23 19.5376 23 16.5C23 13.4624 20.5376 11 17.5 11C14.4624 11 12 13.4624 12 16.5C12 19.5376 14.4624 22 17.5 22Z" fill="url(#paint4_linear_140_10)"/>
<path d="M21.7469 11.43C21.2924 11.03 20.7873 10.69 20.2318 10.42C19.353 10 18.3732 9.75 17.3327 9.75C15.2317 9.75 13.363 10.72 12.1408 12.22C11.2216 13.36 10.666 14.8 10.666 16.37C10.666 16.49 10.6761 16.61 10.6862 16.73C10.767 18.26 11.3731 19.65 12.3226 20.7299C12.858 21.3399 13.5044 21.8499 14.2216 22.2299C15.1509 22.7199 16.2014 22.9999 17.3327 22.9999C18.4641 22.9999 19.5146 22.7199 20.4439 22.2299C20.9186 21.9799 21.353 21.6699 21.757 21.3199C23.1308 20.1099 23.9995 18.34 23.9995 16.37C23.9995 14.4 23.1308 12.63 21.757 11.42L21.7469 11.43ZM21.7469 18.97C21.3631 19.62 20.858 20.1799 20.2318 20.6099C20.1611 20.6599 20.0802 20.6999 19.9994 20.7399C19.2217 21.2199 18.3126 21.5099 17.3226 21.5099C16.3327 21.5099 15.4337 21.2199 14.6459 20.7399C13.464 20.0199 12.5953 18.84 12.2923 17.46C12.2115 17.11 12.1711 16.76 12.1711 16.39C12.1711 14.9 12.8277 13.56 13.858 12.63C14.7772 11.79 15.9893 11.27 17.3226 11.27C18.4035 11.27 19.4035 11.6 20.2217 12.17C20.8479 12.59 21.353 13.16 21.7368 13.81C22.1914 14.57 22.4641 15.45 22.4641 16.4C22.4641 17.35 22.1914 18.23 21.7368 18.99L21.7469 18.97Z" fill="#4438E5"/>
<path d="M17.7974 13.8401H16.2822V17.8301H19.9691V16.3301H17.7974V13.8401Z" fill="#4438E5"/>
<defs>
<linearGradient id="paint0_linear_140_10" x1="4.13086" y1="1.75999" x2="6.39351" y2="1.75999" gradientUnits="userSpaceOnUse">
<stop stop-color="#0468FF"/>
<stop offset="1" stop-color="#5CE8FF"/>
</linearGradient>
<linearGradient id="paint1_linear_140_10" x1="15.3535" y1="0" x2="17.6061" y2="0" gradientUnits="userSpaceOnUse">
<stop stop-color="#0468FF"/>
<stop offset="1" stop-color="#5CE8FF"/>
</linearGradient>
<linearGradient id="paint2_linear_140_10" x1="0" y1="11.8599" x2="21.7477" y2="11.8599" gradientUnits="userSpaceOnUse">
<stop stop-color="#0468FF"/>
<stop offset="1" stop-color="#5CE8FF"/>
</linearGradient>
<linearGradient id="paint3_linear_140_10" x1="6.2627" y1="13.84" x2="12.1415" y2="13.84" gradientUnits="userSpaceOnUse">
<stop stop-color="#0468FF"/>
<stop offset="1" stop-color="#5CE8FF"/>
</linearGradient>
<linearGradient id="paint4_linear_140_10" x1="12" y1="16.5" x2="23" y2="16.5" gradientUnits="userSpaceOnUse">
<stop stop-color="#0468FF"/>
<stop offset="1" stop-color="#5CE8FF"/>
</linearGradient>
</defs>
</svg>
