<svg width="24" height="24" viewBox="0 0 24 24" fill="none" xmlns="http://www.w3.org/2000/svg">
<path d="M24 16.3452C23.99 13.11 22.22 10.94 19.1 10.2432C17.95 12.7118 15.45 14.424 12.54 14.424C10.12 14.424 7.99 13.2494 6.68 11.4377C3.29 11.9255 0.09 13.8765 0 17.5098V24.0001H24V16.3452ZM17.3 17.4601H15.4C14.35 17.4601 13.5 18.8935 13.5 20.098V21.193H11.6V20.098C11.6 18.8935 10.74 17.4601 9.7 17.4601H7.8V15.728H17.32V17.4601H17.3Z" fill="#4438E5"/>
<path d="M11.5903 20.098V21.193H13.4903V20.098C13.4903 18.8935 14.3503 17.4601 15.3903 17.4601H17.2903V15.728H7.78027V17.4601H9.68027C10.7303 17.4601 11.5803 18.8935 11.5803 20.098H11.5903Z" fill="url(#paint0_linear_140_96)"/>
<path d="M12.4101 13.518C15.906 13.518 18.7401 10.6969 18.7401 7.21688C18.7401 3.73687 15.906 0.915771 12.4101 0.915771C8.91412 0.915771 6.08008 3.73687 6.08008 7.21688C6.08008 10.6969 8.91412 13.518 12.4101 13.518Z" fill="#4438E5"/>
<path d="M12.5398 0C8.5398 0 5.2998 3.22521 5.2998 7.20696C5.2998 8.7897 5.8198 10.243 6.6798 11.4276C7.9998 13.2293 10.1298 14.4139 12.5398 14.4139C15.4498 14.4139 17.9598 12.7018 19.0998 10.2331C19.5298 9.30733 19.7798 8.28203 19.7798 7.20696C19.7798 3.22521 16.5398 0 12.5398 0ZM16.8798 10.0041C15.9598 11.4177 14.3598 12.3633 12.5398 12.3633C11.3498 12.3633 10.2698 11.9552 9.3998 11.2783C8.8398 10.8403 8.3598 10.2928 8.0198 9.66568C8.3798 10.024 8.9398 10.1435 9.4198 9.89463C10.0198 9.596 10.2598 8.85938 9.9498 8.26212C9.6398 7.66486 8.9098 7.42595 8.3098 7.73454C7.8798 7.95353 7.6398 8.39153 7.6498 8.83947C7.4798 8.32185 7.3598 7.78431 7.3598 7.21691C7.3598 4.36996 9.6798 2.07051 12.5298 2.07051C15.3798 2.07051 17.6998 4.37992 17.6998 7.21691C17.6998 8.25216 17.3898 9.20778 16.8598 10.0141L16.8798 10.0041Z" fill="url(#paint1_linear_140_96)"/>
<path d="M11.5797 8.78962C10.9797 9.08825 10.7397 9.82487 11.0497 10.4221C11.1997 10.7108 11.4397 10.9099 11.7297 11.0094C12.0297 11.1189 12.3797 11.109 12.6897 10.9597C12.7997 10.8999 12.8797 10.8203 12.9697 10.7407C13.3497 10.3823 13.4697 9.81492 13.2197 9.32716C12.9197 8.72989 12.1797 8.49099 11.5797 8.79957V8.78962Z" fill="url(#paint2_linear_140_96)"/>
<path d="M11.0195 4.99708C10.7195 4.39982 9.97951 4.16091 9.37951 4.4695C8.77951 4.77808 8.53951 5.50475 8.84951 6.10201C9.14951 6.69927 9.88951 6.93818 10.4895 6.62959C11.0895 6.33096 11.3295 5.59434 11.0195 4.99708Z" fill="url(#paint3_linear_140_96)"/>
<defs>
<linearGradient id="paint0_linear_140_96" x1="7.78027" y1="18.4555" x2="17.3003" y2="18.4555" gradientUnits="userSpaceOnUse">
<stop stop-color="#0468FF"/>
<stop offset="1" stop-color="#5CE8FF"/>
</linearGradient>
<linearGradient id="paint1_linear_140_96" x1="5.2998" y1="7.20696" x2="19.7798" y2="7.20696" gradientUnits="userSpaceOnUse">
<stop stop-color="#0468FF"/>
<stop offset="1" stop-color="#5CE8FF"/>
</linearGradient>
<linearGradient id="paint2_linear_140_96" x1="10.9197" y1="9.87465" x2="13.3497" y2="9.87465" gradientUnits="userSpaceOnUse">
<stop stop-color="#0468FF"/>
<stop offset="1" stop-color="#5CE8FF"/>
</linearGradient>
<linearGradient id="paint3_linear_140_96" x1="8.70951" y1="5.55452" x2="11.1495" y2="5.55452" gradientUnits="userSpaceOnUse">
<stop stop-color="#0468FF"/>
<stop offset="1" stop-color="#5CE8FF"/>
</linearGradient>
</defs>
</svg>
