<svg width="24" height="24" viewBox="0 0 24 24" fill="none" xmlns="http://www.w3.org/2000/svg">
<path d="M1 0V24H23V0H1ZM20.9048 22.0083H18.0448L17.9086 18.5427C17.9086 18.5427 17.2067 16.1826 12.0419 16.1527C12.0419 16.1527 12.0105 16.1527 12 16.1527C11.9895 16.1527 11.9686 16.1527 11.9581 16.1527C6.80381 16.1826 6.09143 18.5427 6.09143 18.5427L5.95524 22.0083H3.09524V1.9917H20.9048V22.0083Z" fill="#A8BDCC"/>
<path d="M12 15C13.6569 15 15 13.6569 15 12C15 10.3431 13.6569 9 12 9C10.3431 9 9 10.3431 9 12C9 13.6569 10.3431 15 12 15Z" fill="#A8BDCC"/>
<path d="M8.94005 5H15.06C15.5779 5 16 4.55102 16 4C16 3.44898 15.5779 3 15.06 3H8.94005C8.42206 3 8 3.44898 8 4C8 4.55102 8.42206 5 8.94005 5Z" fill="#A8BDCC"/>
</svg>
