<svg width="24" height="25" viewBox="0 0 24 25" fill="none" xmlns="http://www.w3.org/2000/svg">
<path d="M17.5815 1.8689H1.29492V19.8363H17.5815V1.8689Z" fill="#4438E5"/>
<path d="M8.0702 18.3224V16.4536H10.2835C10.5236 13.9793 12.0583 11.9017 14.1985 10.8786H12.6847V9.00981H15.0233V10.5549C15.6915 10.3357 16.4014 10.2209 17.1322 10.2209C17.602 10.2209 18.0718 10.2731 18.5207 10.3566V0H0V21.705H11.9957C11.1605 20.7758 10.5863 19.617 10.3566 18.3224H8.05976H8.0702ZM10.4088 14.5953H8.0702V12.7265H10.4088V14.5953ZM10.4088 10.8681H8.0702V8.99937H10.4088V10.8681ZM2.2655 2.4221H16.2344V6.34758H2.2655V2.4221ZM5.79426 18.3224H3.45567V16.4536H5.79426V18.3224ZM5.79426 14.5953H3.45567V12.7265H5.79426V14.5953ZM5.79426 10.8681H3.45567V8.99937H5.79426V10.8681Z" fill="url(#paint0_linear_140_75)"/>
<path d="M17.3723 22.6549C20.4628 22.6549 22.9682 20.1496 22.9682 17.059C22.9682 13.9685 20.4628 11.4631 17.3723 11.4631C14.2817 11.4631 11.7764 13.9685 11.7764 17.059C11.7764 20.1496 14.2817 22.6549 17.3723 22.6549Z" fill="url(#paint1_linear_140_75)"/>
<path d="M18.5088 10.3567C18.0599 10.2627 17.6005 10.2209 17.1203 10.2209C16.379 10.2209 15.6795 10.3358 15.0114 10.555C14.7295 10.649 14.458 10.7638 14.1866 10.8891C12.0464 11.9018 10.5012 13.9898 10.2716 16.4641C10.2507 16.6834 10.2402 16.9026 10.2402 17.1323C10.2402 17.5499 10.282 17.9466 10.3551 18.3433C10.5848 19.6275 11.159 20.7863 11.9942 21.7259C13.2574 23.1458 15.0844 24.0332 17.1203 24.0332C20.9205 24.0332 24.0003 20.9429 24.0003 17.1323C24.0003 13.8019 21.6408 11.0144 18.4984 10.3775L18.5088 10.3567ZM14.458 21.7051C12.8816 20.7759 11.8062 19.0846 11.8062 17.1219C11.8062 16.0465 12.1299 15.0547 12.6728 14.2195C13.0486 13.6349 13.5393 13.1337 14.1135 12.737C14.9696 12.1419 16.0032 11.787 17.1307 11.787C17.6109 11.787 18.0703 11.8705 18.5192 11.9958C20.7743 12.6117 22.4552 14.6684 22.4552 17.1219C22.4552 20.066 20.0748 22.4567 17.1411 22.4567C16.1702 22.4567 15.2619 22.1749 14.4789 21.7155L14.458 21.7051Z" fill="#4438E5"/>
<path d="M21.3901 16.84H20.5654L21.2649 14.136H19.9599L19.3439 16.84H18.4252L17.7466 14.136H16.5251L15.8465 16.84H14.9277L14.8442 16.4537L14.4266 14.6058L14.3222 14.136H13.0172L13.1425 14.6058L13.6227 16.4537L13.7271 16.84H12.9023V17.6647H13.9464L14.1134 18.3225L14.6458 20.3687H16.0239L16.7025 17.6647H17.6108L18.2894 20.3687H19.6675L20.367 17.6647H21.411V16.84H21.3901ZM15.3871 18.6461H15.3349L15.1156 17.6752H15.6377L15.3871 18.6461ZM16.8905 16.84L17.1097 15.9421H17.1619L17.3811 16.84H16.8905ZM18.9367 18.6461H18.8845L18.634 17.6647H19.156L18.9367 18.6461Z" fill="#4438E5"/>
<defs>
<linearGradient id="paint0_linear_140_75" x1="0" y1="10.8473" x2="18.5103" y2="10.8473" gradientUnits="userSpaceOnUse">
<stop stop-color="#0468FF"/>
<stop offset="1" stop-color="#5CE8FF"/>
</linearGradient>
<linearGradient id="paint1_linear_140_75" x1="11.7764" y1="17.059" x2="22.9786" y2="17.059" gradientUnits="userSpaceOnUse">
<stop stop-color="#0468FF"/>
<stop offset="1" stop-color="#5CE8FF"/>
</linearGradient>
</defs>
</svg>
