<svg width="239" height="88" viewBox="0 0 239 88" fill="none" xmlns="http://www.w3.org/2000/svg">
<path d="M30.0013 59.5663H20.0615V87.0802H9.93975V59.5663H0V50.4861H30.0013V59.5663Z" fill="black"/>
<path d="M34.498 50.4861H44.7108V87.07H34.498V50.4861Z" fill="black"/>
<path d="M88.6919 67.5241C88.6919 79.4963 80.8756 88.0002 69.4191 88.0002C57.9626 88.0002 49.9238 79.9412 49.9238 68.8083C49.9238 57.6753 58.0536 49.5557 69.3281 49.5557C78.9139 49.5557 86.7606 55.5519 88.3077 64.0558H77.741C76.4164 60.9717 73.1402 58.9898 69.409 58.9898C63.9285 58.9898 60.2377 62.9536 60.2377 68.7981C60.2377 74.6427 63.8678 78.5458 69.409 78.5458C73.2514 78.5458 76.5579 76.6852 77.7005 73.8641H68.6102V67.5038H88.6717L88.6919 67.5241Z" fill="black"/>
<path d="M117.629 78.3336V87.0802H93.7754V50.4861H117.184V59.2023H103.806V64.5918H115.819V72.8632H103.806V78.3437H117.629V78.3336Z" fill="black"/>
<path d="M137.144 75.8866H133.484V87.0802H123.402V50.4861H139.257C147.145 50.4861 152.868 55.7846 152.868 63.429C152.868 67.9186 150.673 71.5992 147.064 73.7631L154.324 87.07H143.07L137.134 75.8764H137.144V75.8866ZM133.484 67.3928H138.084C140.906 67.3928 142.523 65.694 142.523 63.4088C142.523 61.1235 140.906 59.445 138.084 59.445H133.484V67.3928Z" fill="black"/>
<path d="M187.532 73.4896C187.532 81.9733 181.991 87.9998 173.871 87.9998C165.751 87.9998 160.059 82.2867 160.059 74.3997C160.059 66.5126 165.822 60.759 173.81 60.759C180.605 60.759 186.167 65.0059 187.259 71.0426H179.776C178.836 68.8585 176.52 67.4529 173.871 67.4529C169.988 67.4529 167.369 70.264 167.369 74.4098C167.369 78.5555 169.948 81.316 173.871 81.316C176.601 81.316 178.937 79.9914 179.746 77.9994H173.305V73.4997H187.532V73.4896Z" fill="black"/>
<path d="M215.024 74.3594C215.024 81.9229 209.463 87.3428 201.637 87.3428H191.141V61.4165H201.637C209.483 61.4165 215.024 66.7858 215.024 74.3594ZM207.704 74.3594C207.704 70.517 205.145 67.9587 201.303 67.9587H198.32V80.8005H201.303C205.145 80.8005 207.704 78.1816 207.704 74.3594Z" fill="black"/>
<path d="M217.471 78.9802H224.842C224.842 80.8306 226.268 81.7306 227.896 81.7306C229.392 81.7306 230.818 80.9318 230.818 79.5161C230.818 77.8881 228.796 77.4129 226.329 76.8163C222.577 75.886 217.794 74.7333 217.794 68.8382C217.794 63.7318 221.546 60.8096 227.663 60.8096C233.781 60.8096 237.441 64.0049 237.441 69.273H230.282C230.282 67.6349 229.059 66.8664 227.582 66.8664C226.308 66.8664 225.085 67.4125 225.085 68.6259C225.085 70.1022 227.036 70.5875 229.483 71.1942C233.295 72.1751 238.291 73.4592 238.291 79.3746C238.291 85.2899 233.943 87.9796 227.916 87.9796C221.566 87.9796 217.471 84.6225 217.471 78.9701V78.9802Z" fill="black"/>
<path d="M217.006 5.17606C217.006 5.17606 217.006 5.17606 216.984 5.16528C216.984 5.16528 217.006 5.18684 217.028 5.18684H217.006V5.17606Z" fill="#4A6388"/>
<path d="M224.652 27.3706C224.449 28.0481 224.328 28.7863 224.278 29.5447C224.096 32.2849 224.824 35.3386 226.179 37.3205C226.553 37.8665 226.977 38.3418 227.443 38.6957C227.807 38.9687 228.191 39.1811 228.605 39.3024C228.818 39.3631 229.03 39.4035 229.253 39.4237C229.414 39.4035 229.556 39.3732 229.697 39.3226C230.051 39.2215 230.355 39.0395 230.628 38.8069C231.002 38.4834 231.305 38.0384 231.538 37.5126C231.861 36.7846 232.043 35.9049 232.114 34.9342C232.306 32.295 231.629 29.0694 230.385 26.8752C230.021 26.2381 229.647 25.7326 229.263 25.3483C228.828 24.9135 228.383 24.6304 227.958 24.5091C227.594 24.3978 227.25 24.3978 226.917 24.4787C226.623 24.5596 226.35 24.7012 226.098 24.9135C225.804 25.1562 225.531 25.4697 225.299 25.864C225.066 26.2483 224.864 26.7134 224.702 27.2291C224.702 27.2695 224.672 27.31 224.662 27.3504V27.3706H224.652Z" fill="#4A6388"/>
<path d="M221.993 35.2173C222.306 34.4387 222.499 33.5792 222.559 32.6893C222.62 31.7591 222.559 30.7985 222.327 29.8581C222.205 29.3323 222.044 28.8267 221.851 28.3616C221.134 26.592 219.981 25.2674 218.656 24.4585C218.13 24.1349 217.584 23.9023 217.018 23.7506C216.695 23.6596 216.371 23.599 216.047 23.5686C215.552 23.5181 215.046 23.5383 214.561 23.6394C214.349 23.6799 214.136 23.7304 213.934 23.8012C213.61 23.9023 213.297 24.0439 212.994 24.2158C212.781 24.3371 212.579 24.4686 212.377 24.6202C212.306 24.6708 212.235 24.7315 212.175 24.782C211.962 24.9539 211.76 25.1562 211.568 25.3685C211.426 25.5202 211.295 25.682 211.163 25.864C211.123 25.9145 211.083 25.9752 211.042 26.0359C210.951 26.1572 210.87 26.2887 210.789 26.4201C210.759 26.4606 210.739 26.5111 210.708 26.5516C210.597 26.7538 210.486 26.956 210.385 27.1684C210.304 27.3504 210.223 27.5425 210.162 27.7346C210.162 27.7549 210.162 27.7751 210.142 27.8054C210.082 27.9874 210.021 28.1795 209.97 28.3717C209.92 28.5638 209.879 28.7559 209.839 28.948C209.798 29.1503 209.768 29.3525 209.748 29.5547C209.717 29.7671 209.707 29.9794 209.697 30.2019C209.697 30.4344 209.697 30.667 209.697 30.8996C209.697 31.1321 209.717 31.3546 209.738 31.5872C209.738 31.6681 209.738 31.7388 209.758 31.8197C209.788 32.0826 209.829 32.3354 209.879 32.5882C209.98 33.0837 210.112 33.5691 210.284 34.0443C210.334 34.1758 210.385 34.3173 210.446 34.4488C210.82 35.3285 211.325 36.1475 211.972 36.8351C212.185 37.0576 212.407 37.2699 212.65 37.4722C212.711 37.5227 212.771 37.5733 212.842 37.6238C212.994 37.7351 213.145 37.8463 213.307 37.9474C213.519 38.0789 213.732 38.2002 213.954 38.3215C214.167 38.4227 214.379 38.5137 214.601 38.6047C214.652 38.6249 214.703 38.6451 214.753 38.6653C214.905 38.7159 215.067 38.7664 215.228 38.817C215.42 38.8676 215.623 38.9181 215.835 38.9586C216.027 38.999 216.229 39.0192 216.432 39.0496H216.553C216.796 39.0496 217.028 39.0192 217.261 38.999C217.503 38.9687 217.726 38.9282 217.948 38.8777C218.09 38.8473 218.231 38.8069 218.363 38.7664C218.454 38.7361 218.545 38.7058 218.636 38.6754C218.899 38.5844 219.142 38.4631 219.374 38.3418C219.597 38.2204 219.819 38.0789 220.021 37.9373C220.072 37.8968 220.122 37.8665 220.163 37.8261C220.517 37.5429 220.84 37.2194 221.123 36.8655C221.498 36.3902 221.801 35.8543 222.033 35.2779L221.993 35.2173Z" fill="#4A6388"/>
<path d="M206.865 32.7198C206.865 32.7198 206.865 32.6895 206.865 32.6692C206.925 32.4569 206.966 32.2547 207.016 32.0423C207.057 31.83 207.087 31.6277 207.117 31.4154C207.148 31.203 207.158 30.9907 207.168 30.7784V30.3334C207.168 30.111 207.168 29.8986 207.128 29.6863C207.107 29.5346 207.087 29.3728 207.067 29.2313C207.067 29.1908 207.067 29.1504 207.047 29.12C207.047 29.0695 207.026 29.029 207.016 28.9785C206.966 28.7156 206.895 28.4527 206.824 28.1999C206.764 27.9875 206.693 27.7853 206.612 27.5831C206.531 27.3707 206.44 27.1786 206.349 26.9764C206.268 26.8146 206.187 26.6528 206.096 26.5011C206.005 26.3393 205.904 26.1776 205.793 26.0259C205.621 25.763 205.419 25.5203 205.216 25.2877L205.196 25.2574C205.034 25.0855 204.873 24.9136 204.701 24.7518C204.478 24.5496 204.256 24.3575 204.013 24.1856C203.72 23.9732 203.406 23.771 203.083 23.5991C202.871 23.4879 202.648 23.3766 202.436 23.2856C202.304 23.225 202.163 23.1744 202.021 23.1238C201.637 22.9823 201.232 22.871 200.828 22.8003C200.474 22.7295 200.11 22.689 199.746 22.6688H199.696C199.21 22.6486 198.725 22.6688 198.25 22.7396C198.159 22.7497 198.057 22.7699 197.966 22.78C197.562 22.8508 197.157 22.9519 196.763 23.0834C196.328 23.2351 195.894 23.4272 195.489 23.6598L195.347 23.7406C195.014 23.9429 194.69 24.1653 194.377 24.4181C194.073 24.6709 193.78 24.9439 193.507 25.2473C193.244 25.5405 192.991 25.854 192.759 26.1978V26.218C192.577 26.4708 192.425 26.7236 192.294 26.9865C192.132 27.2999 191.99 27.6134 191.879 27.9471C191.778 28.2403 191.687 28.5336 191.616 28.8268C191.546 29.1403 191.495 29.4436 191.465 29.7571C191.465 29.8177 191.465 29.8784 191.444 29.9391C191.424 30.202 191.414 30.475 191.414 30.7379C191.414 31.1828 191.465 31.6176 191.546 32.0423C191.566 32.1637 191.586 32.2749 191.616 32.3962C191.707 32.7704 191.819 33.1344 191.96 33.4984C191.99 33.5793 192.021 33.6501 192.051 33.7208C192.162 33.9837 192.294 34.2467 192.425 34.4994C192.567 34.7522 192.718 34.9949 192.88 35.2275C192.88 35.2477 192.911 35.2679 192.921 35.2882C193.082 35.5207 193.264 35.7432 193.457 35.9454C193.618 36.1274 193.79 36.2993 193.972 36.4611C193.993 36.4813 194.013 36.4914 194.023 36.5117C194.235 36.7038 194.458 36.8757 194.7 37.0476C194.852 37.1588 195.014 37.2599 195.176 37.361C195.267 37.4116 195.347 37.4622 195.438 37.5127C195.53 37.5633 195.621 37.6138 195.722 37.6644C195.883 37.7453 196.055 37.8262 196.227 37.897L196.288 37.9273C196.44 37.988 196.601 38.0486 196.763 38.0992C196.844 38.1295 196.935 38.1599 197.016 38.1801C197.107 38.2104 197.198 38.2306 197.289 38.261C197.451 38.3014 197.623 38.3419 197.795 38.3823H197.815C197.987 38.4228 198.159 38.4531 198.33 38.4733C198.462 38.4935 198.583 38.5037 198.715 38.5239H198.806C198.927 38.5239 199.058 38.5441 199.19 38.5542H199.281C199.412 38.5542 199.544 38.534 199.675 38.5239C199.746 38.5239 199.807 38.5239 199.878 38.5037C200.14 38.4733 200.393 38.4329 200.646 38.3924H200.666C200.939 38.3318 201.202 38.2711 201.465 38.2003C201.516 38.2003 201.556 38.17 201.607 38.1599C201.779 38.1093 201.95 38.0486 202.112 37.988C202.274 37.9273 202.446 37.8565 202.598 37.7857C202.78 37.7048 202.962 37.6138 203.133 37.5228C203.326 37.4217 203.508 37.3105 203.679 37.1891C203.679 37.1891 203.7 37.1689 203.72 37.1689C204.114 36.906 204.468 36.6128 204.792 36.2993C205.105 35.996 205.388 35.6623 205.631 35.3185C205.671 35.2679 205.712 35.2073 205.752 35.1567C206.116 34.6309 206.4 34.0646 206.622 33.4883C206.713 33.2456 206.794 32.9928 206.865 32.74V32.7198Z" fill="#4A6388"/>
<path d="M187.977 34.5499C188.058 34.378 188.128 34.196 188.199 34.0139C188.25 33.8926 188.29 33.7713 188.331 33.6398C188.391 33.4477 188.442 33.2657 188.493 33.0736C188.533 32.9017 188.573 32.7196 188.604 32.5478C188.654 32.2646 188.695 31.9815 188.715 31.6984C188.735 31.4658 188.745 31.2231 188.745 30.9906C188.745 30.667 188.725 30.3434 188.675 30.03C188.634 29.6862 188.563 29.3525 188.472 29.0188C188.432 28.857 188.381 28.7053 188.331 28.5435C188.331 28.5132 188.311 28.4829 188.29 28.4424C188.25 28.3211 188.199 28.2099 188.159 28.0986C187.987 27.6942 187.795 27.32 187.572 26.9762C187.512 26.8852 187.451 26.7942 187.39 26.7133C187.158 26.3898 186.915 26.0965 186.642 25.8336C186.329 25.5202 185.985 25.2471 185.621 25.0045C185.237 24.7517 184.832 24.5393 184.407 24.3775C183.942 24.1955 183.457 24.054 182.972 23.9731C182.446 23.8821 181.92 23.8517 181.374 23.872C180.818 23.8922 180.252 23.9731 179.706 24.1247C179.453 24.1854 179.21 24.2663 178.967 24.3573C178.533 24.5191 178.108 24.7213 177.703 24.9539C177.481 25.0854 177.258 25.2269 177.046 25.3786C176.662 25.6617 176.298 25.9752 175.954 26.3392C175.873 26.4302 175.792 26.5111 175.711 26.6021C175.459 26.8852 175.226 27.1987 175.004 27.5324C174.801 27.8458 174.609 28.1795 174.437 28.5233C174.417 28.5739 174.397 28.6244 174.367 28.675C174.225 28.9783 174.104 29.2918 174.003 29.6053C173.901 29.9086 173.821 30.2221 173.76 30.5254C173.699 30.8389 173.649 31.1422 173.628 31.4557C173.598 31.8197 173.588 32.1736 173.608 32.5376C173.608 32.7298 173.628 32.9118 173.649 33.0938C173.679 33.3668 173.719 33.6297 173.78 33.8926C173.841 34.1555 173.912 34.4184 173.992 34.6712C174.073 34.924 174.164 35.1667 174.276 35.3992C174.356 35.5812 174.437 35.7531 174.528 35.925C174.528 35.9453 174.549 35.9655 174.559 35.9756C174.67 36.1778 174.791 36.37 174.913 36.552C175.014 36.7036 175.125 36.8553 175.246 36.9969C175.408 37.1991 175.58 37.3912 175.772 37.5732C175.883 37.6845 175.995 37.7856 176.106 37.8867C176.156 37.9272 176.207 37.9676 176.257 38.008C176.429 38.1496 176.601 38.2709 176.783 38.3923C177.006 38.544 177.248 38.6754 177.491 38.7968C177.633 38.8675 177.784 38.9383 177.936 38.999C178.098 39.0698 178.27 39.1304 178.442 39.181C178.785 39.2922 179.139 39.3731 179.503 39.4338C179.635 39.454 179.766 39.4742 179.898 39.4843C180.221 39.5147 180.565 39.5349 180.919 39.5248C181.101 39.5248 181.283 39.5248 181.465 39.4945C181.799 39.4338 182.122 39.3529 182.426 39.2619C182.587 39.2214 182.739 39.1709 182.891 39.1102C183.093 39.0394 183.285 38.9687 183.477 38.8878C183.649 38.817 183.811 38.7361 183.983 38.6552C184.175 38.5541 184.367 38.453 184.549 38.3417C184.63 38.2912 184.711 38.2507 184.792 38.1901C184.883 38.1294 184.964 38.0687 185.055 38.0182C185.216 37.9069 185.368 37.7957 185.52 37.6744C185.651 37.5631 185.793 37.4519 185.914 37.3407L185.954 37.3002C186.086 37.1789 186.217 37.0474 186.339 36.9261C186.41 36.8553 186.47 36.7946 186.531 36.7239C186.662 36.5823 186.784 36.4407 186.895 36.2891C186.935 36.2385 186.976 36.1879 187.006 36.1374C187.127 35.9756 187.239 35.8138 187.35 35.652C187.421 35.5509 187.481 35.4397 187.552 35.3285C187.633 35.197 187.704 35.0656 187.775 34.924C187.845 34.7925 187.906 34.6611 187.977 34.5195V34.5499Z" fill="#4A6388"/>
<path d="M165.658 43.8631H165.749C166.113 43.8226 166.507 43.7316 166.912 43.5597C166.982 43.5294 167.063 43.499 167.134 43.4687C167.356 43.3373 167.569 43.1856 167.771 43.0339C167.791 43.0339 167.811 43.0036 167.832 42.9935C168.095 42.7912 168.347 42.5789 168.58 42.3463C168.863 42.0733 169.126 41.7801 169.359 41.4767C169.439 41.3756 169.51 41.2846 169.581 41.1835C169.682 41.0419 169.783 40.8902 169.884 40.7386C170.218 40.2026 170.511 39.6364 170.744 39.0499C170.936 38.5747 171.088 38.0792 171.209 37.5736V37.5433C171.361 36.9265 171.452 36.2894 171.502 35.6726C171.533 35.1974 171.533 34.7221 171.502 34.257C171.482 33.9536 171.452 33.6604 171.401 33.3672C171.381 33.2256 171.351 33.084 171.33 32.9526C171.31 32.8313 171.28 32.7099 171.249 32.5987C171.169 32.2751 171.067 31.9617 170.956 31.6583C170.855 31.3853 170.734 31.1325 170.602 30.8797C170.511 30.7179 170.42 30.5561 170.319 30.4045C170.248 30.2932 170.167 30.1921 170.097 30.091C170.016 29.9798 169.925 29.8685 169.834 29.7674C169.652 29.5652 169.47 29.3933 169.278 29.2315C168.944 28.9585 168.59 28.7461 168.226 28.6046C168.155 28.5743 168.084 28.554 168.014 28.5338C167.538 28.3821 167.053 28.3316 166.558 28.372C166.325 28.3922 166.092 28.4327 165.86 28.5035C164.778 28.8068 163.716 29.5551 162.867 30.6775C162.078 31.719 161.471 33.084 161.168 34.6918C161.016 35.5007 160.956 36.34 160.986 37.1692C161.027 38.4129 161.259 39.6364 161.664 40.688C161.947 41.416 162.311 42.0632 162.756 42.589C162.857 42.7103 162.958 42.8216 163.069 42.9227C163.494 43.3373 163.989 43.6305 164.535 43.7822C164.889 43.8833 165.253 43.9136 165.658 43.8833V43.8631Z" fill="#4A6388"/>
<path d="M160.308 49.05C160.51 47.9479 160.611 46.7041 160.611 45.4301C160.611 44.156 160.51 42.8314 160.308 41.618C160.105 40.4046 159.802 39.2822 159.408 38.3923C159.155 37.8362 158.872 37.3711 158.548 37.0172C158.478 36.9464 158.417 36.8756 158.346 36.8149C158.124 36.6228 157.901 36.4914 157.679 36.4307C157.365 36.3296 157.052 36.37 156.748 36.5116C156.395 36.6936 156.071 37.0273 155.788 37.5025C155.363 38.2204 155.04 39.2619 154.898 40.536C154.777 41.5977 154.777 42.8212 154.949 44.1661C154.999 44.5706 155.07 44.9952 155.151 45.4199C155.313 46.239 155.535 47.0479 155.788 47.776C156 48.3624 156.374 49.2523 156.839 50.0511C157.203 50.6679 157.618 51.2341 158.033 51.5476C158.417 51.8307 158.801 51.9217 159.175 51.6791C159.408 51.5274 159.62 51.2544 159.832 50.8297C160.025 50.2938 160.176 49.6972 160.298 49.05H160.308Z" fill="#4A6388"/>
<path d="M159.53 61.2043C159.53 61.2043 159.621 61.2649 159.661 61.2852C159.944 61.4166 159.995 61.2447 159.955 60.9414C159.914 60.6785 159.813 60.3246 159.702 59.9909C159.702 59.9909 159.641 59.7987 159.54 59.5055C159.378 59.0404 159.115 58.2719 158.782 57.3315C157.801 54.5913 156.254 50.4354 155.121 48.3321C154.848 47.8266 154.605 47.4423 154.393 47.2199C154.302 47.1289 154.221 47.0581 154.15 47.0277C154.09 46.9974 154.029 46.9974 153.979 47.0075C153.857 47.0378 153.766 47.1794 153.716 47.412V47.4625C153.655 47.7962 153.665 48.2816 153.736 48.8984C153.756 49.0501 153.776 49.2119 153.807 49.3837C153.908 50.041 154.08 50.8095 154.312 51.6285C154.403 51.9622 154.514 52.3161 154.626 52.67C154.899 53.5194 155.242 54.4194 155.647 55.3193C155.687 55.4103 155.728 55.5114 155.778 55.6024C156.476 57.1293 157.224 58.373 157.882 59.3033C158.6 60.3144 159.206 60.9616 159.56 61.2043H159.53Z" fill="#4A6388"/>
<path d="M220.872 12.8201V12.8403C220.852 13.0526 220.842 13.2852 220.852 13.5178C220.852 13.8009 220.892 14.1042 220.953 14.4177C221.024 14.8323 221.125 15.257 221.266 15.6918C221.468 16.349 221.741 17.0063 222.065 17.6534C223.127 19.7465 224.745 21.597 226.373 22.0621C226.514 22.1026 226.666 22.1329 226.807 22.1531C227.02 22.1329 227.212 22.0823 227.374 22.0014C227.576 21.9003 227.728 21.7486 227.849 21.5565C227.97 21.3543 228.051 21.1116 228.092 20.8386C228.132 20.5858 228.132 20.3027 228.112 19.9892C228.081 19.5949 227.99 19.1601 227.859 18.6949C227.717 18.1893 227.525 17.6635 227.293 17.1175C227.06 16.5816 226.777 16.0254 226.464 15.4794C226.009 14.7008 225.483 13.9222 224.896 13.2043C224.603 12.8403 224.34 12.547 224.087 12.2841C223.895 12.092 223.703 11.9201 223.531 11.7786C223.258 11.5561 223.005 11.3943 222.783 11.2831C222.419 11.1112 222.116 11.0606 221.873 11.1213C221.711 11.1617 221.57 11.2426 221.448 11.3741C221.286 11.5359 221.165 11.7583 221.074 12.0313C220.993 12.2639 220.943 12.5369 220.912 12.8302H220.882L220.872 12.8201Z" fill="#4A6388"/>
<path d="M208.674 13.6993C208.674 14.124 208.715 14.5588 208.816 15.0037C208.917 15.4789 209.089 15.9643 209.301 16.4294C209.372 16.5912 209.453 16.7429 209.544 16.9047C209.706 17.1878 209.877 17.4709 210.07 17.7439C210.322 18.0978 210.616 18.4416 210.929 18.7652C211.02 18.8562 211.121 18.9573 211.212 19.0483C211.991 19.7764 212.931 20.3831 213.993 20.7875C214.236 20.8785 214.478 20.9594 214.731 21.0302C214.761 21.0302 214.802 21.0504 214.832 21.0605C215.136 21.1414 215.449 21.2021 215.773 21.2527C216.258 21.2729 216.683 21.2426 217.067 21.1718C217.401 21.1111 217.704 21.0201 217.977 20.9089C218.482 20.6965 218.867 20.4033 219.16 20.0696C219.2 20.019 219.251 19.9685 219.291 19.9179C219.544 19.5944 219.716 19.2404 219.837 18.8865C219.999 18.4113 220.06 17.936 220.09 17.5518C220.11 17.1777 220.09 16.8844 220.07 16.7226C220.07 16.5811 220.04 16.4294 220.019 16.2878C219.928 15.7216 219.777 15.1756 219.575 14.6599C219.362 14.1138 219.089 13.6083 218.766 13.133C218.422 12.6072 218.017 12.132 217.572 11.7174C215.823 10.049 213.477 9.25013 211.556 9.8265C211.435 9.86695 211.313 9.90739 211.192 9.95795C210.686 10.1703 210.211 10.4736 209.797 10.9084C209.746 10.9691 209.685 11.0197 209.635 11.0803C209.574 11.1511 209.503 11.232 209.443 11.3129C209.22 11.6061 209.048 11.9196 208.927 12.2533C208.846 12.4656 208.785 12.6881 208.745 12.9207C208.694 13.1735 208.674 13.4364 208.664 13.7094H208.674V13.6993Z" fill="#4A6388"/>
<path d="M199.919 8.25981C199.443 8.19914 198.958 8.16881 198.483 8.17892C197.957 8.17892 197.431 8.23959 196.915 8.33059C196.248 8.45193 195.591 8.64405 194.984 8.91707C194.569 9.09908 194.175 9.32153 193.801 9.57433C193.488 9.79678 193.184 10.0395 192.911 10.3125C192.83 10.3934 192.749 10.4844 192.668 10.5653C192.325 10.9495 192.052 11.3641 191.849 11.7888C191.829 11.8393 191.799 11.8899 191.779 11.9405C191.597 12.3651 191.485 12.7999 191.425 13.2347C191.394 13.4774 191.384 13.7302 191.394 13.9729C191.394 14.3167 191.455 14.6706 191.546 15.0144C191.607 15.2369 191.678 15.4694 191.758 15.6919C191.92 16.0862 192.122 16.4705 192.375 16.8345C192.618 17.1985 192.911 17.5423 193.255 17.8659C193.579 18.1793 193.943 18.4726 194.347 18.7456C194.711 18.9883 195.116 19.2107 195.54 19.4029C195.914 19.5747 196.319 19.7264 196.733 19.8478C197.016 19.9287 197.3 20.0096 197.603 20.0702C197.795 20.1107 197.987 20.141 198.189 20.1814C198.564 20.2421 198.948 20.2826 199.352 20.3028C199.605 20.3028 199.858 20.2826 200.09 20.2623H200.131C200.717 20.2017 201.243 20.1107 201.729 19.9893C202.305 19.8377 202.81 19.6455 203.255 19.4231C203.801 19.1501 204.256 18.8265 204.651 18.4726C204.974 18.1692 205.247 17.8558 205.48 17.5322C205.622 17.33 205.743 17.1277 205.854 16.9154C206.066 16.5109 206.208 16.1166 206.309 15.7323C206.339 15.611 206.37 15.4896 206.39 15.3784C206.43 15.156 206.451 14.9537 206.461 14.7616C206.461 14.5088 206.461 14.256 206.461 14.0133C206.441 13.801 206.42 13.5988 206.38 13.3965C206.329 13.1235 206.259 12.8606 206.168 12.6078C206.006 12.1427 205.773 11.718 205.5 11.3135C205.227 10.9192 204.904 10.5653 204.529 10.2417C204.115 9.87768 203.65 9.56421 203.154 9.2912C202.517 8.9474 201.809 8.6845 201.081 8.50249C200.707 8.41149 200.323 8.3407 199.939 8.29015V8.25981H199.919Z" fill="#4A6388"/>
<path d="M187.045 9.85728C186.751 9.62472 186.428 9.42248 186.084 9.2607C185.599 9.02813 185.073 8.85623 184.507 8.75511C183.95 8.64389 183.364 8.60344 182.757 8.62366C182.242 8.64389 181.706 8.70456 181.17 8.80567C180.796 8.87645 180.421 8.97757 180.047 9.09891C179.471 9.28092 178.895 9.5236 178.328 9.82695C177.58 10.2213 176.872 10.7168 176.215 11.3134C175.861 11.6268 175.527 11.9807 175.214 12.3549C175.093 12.5065 174.971 12.6582 174.85 12.8099C174.597 13.1537 174.375 13.5076 174.193 13.8716C173.92 14.3974 173.717 14.9333 173.586 15.4693C173.475 15.9041 173.424 16.349 173.414 16.7737C173.414 17.1781 173.444 17.5826 173.535 17.9567C173.535 17.9769 173.535 17.9972 173.535 18.0174C173.667 18.5432 173.879 19.0286 174.193 19.4634C174.294 19.6049 174.405 19.7465 174.526 19.8779C174.82 20.1914 175.173 20.4745 175.588 20.7071C175.679 20.7576 175.77 20.8082 175.871 20.8588C176.326 21.0812 176.842 21.2531 177.418 21.3643C177.904 21.4553 178.429 21.5059 178.996 21.5059C179.461 21.5059 179.956 21.4756 180.472 21.4149C180.583 21.3947 180.684 21.3643 180.796 21.3441C181.048 21.2835 181.301 21.2228 181.544 21.152C181.948 21.0408 182.333 20.9093 182.697 20.7678C183.03 20.6363 183.344 20.5049 183.637 20.3532C184.153 20.1004 184.638 19.8071 185.073 19.5038C185.103 19.4836 185.133 19.4634 185.164 19.4431C185.568 19.1499 185.932 18.8465 186.256 18.5331C186.569 18.2297 186.852 17.9163 187.095 17.6028C187.429 17.1781 187.712 16.7332 187.945 16.2883C188.177 15.8434 188.349 15.3985 188.47 14.9637C188.47 14.9434 188.47 14.9333 188.47 14.9131C188.602 14.4176 188.683 13.9323 188.683 13.4874C188.683 13.3458 188.683 13.2042 188.683 13.0627C188.683 12.911 188.652 12.7694 188.632 12.6279C188.582 12.3549 188.521 12.092 188.43 11.8392C188.359 11.647 188.278 11.465 188.187 11.283C187.924 10.7774 187.57 10.3325 187.146 9.96851C187.095 9.92807 187.055 9.88762 187.004 9.84717H187.034L187.045 9.85728Z" fill="#4A6388"/>
<path d="M159.824 24.0236C159.824 24.4787 159.885 24.8932 159.986 25.2674C160.057 25.5303 160.148 25.773 160.259 25.9853C160.461 26.3695 160.744 26.683 161.108 26.8953C161.432 27.0875 161.826 27.1886 162.281 27.1886C162.676 27.1886 163.111 27.1178 163.606 26.956C163.869 26.8751 164.142 26.7639 164.435 26.6223C164.516 26.5819 164.607 26.5414 164.698 26.501C165.406 26.0662 166.063 25.5606 166.67 25.0146C166.771 24.9236 166.872 24.8326 166.973 24.7315C167.742 23.9933 168.409 23.1743 168.975 22.3249C169.38 21.7182 169.724 21.1115 170.027 20.4947C170.34 19.8374 170.593 19.1903 170.785 18.5633C170.917 18.1387 171.018 17.7241 171.089 17.3297C171.18 16.8646 171.22 16.4197 171.23 16.0051C171.23 15.6006 171.2 15.2164 171.129 14.8827C171.109 14.7816 171.078 14.6906 171.058 14.5996V14.5692C170.967 14.2861 170.846 14.0434 170.704 13.8311C170.492 13.5176 170.229 13.2851 169.936 13.1233C169.855 13.0828 169.774 13.0424 169.683 13.012H169.663C168.54 12.6076 166.973 13.0727 165.396 14.1951C164.01 15.1861 162.625 16.6826 161.533 18.5633C161.412 18.7757 161.29 18.988 161.179 19.2105C160.936 19.6655 160.684 20.252 160.481 20.7778C160.411 20.9699 160.35 21.1519 160.289 21.3137C160.198 21.5968 160.128 21.8699 160.057 22.153C159.915 22.7597 159.844 23.3664 159.844 23.9225V24.0135H159.824V24.0236Z" fill="#4A6388"/>
<path d="M157.297 21.7991C157.186 21.8699 157.075 21.9609 156.953 22.0823C156.64 22.3957 156.296 22.8811 155.952 23.4777C155.042 25.0753 154.092 27.5527 153.505 30.212C153.364 30.8491 153.253 31.476 153.172 32.0726C153.01 33.1747 152.949 34.1758 153 34.9847C153 35.0656 153 35.1364 153 35.2072C153.03 35.5611 153.081 35.8847 153.151 36.1476C153.151 36.188 153.172 36.2285 153.182 36.2689C153.263 36.5318 153.374 36.7644 153.526 36.8958C153.576 36.9363 153.617 36.9767 153.677 36.9969C153.748 37.0273 153.829 37.0374 153.91 37.0273C154.072 36.9969 154.264 36.8958 154.476 36.6734C154.547 36.6026 154.608 36.5318 154.678 36.4408C154.87 36.1981 155.093 35.8847 155.336 35.46C155.406 35.3184 155.487 35.1667 155.558 35.0151C156.397 33.286 157.125 31.1322 157.651 29.0593C157.833 28.3515 157.985 27.6437 158.106 26.9763C158.137 26.7943 158.167 26.6123 158.197 26.4404C158.329 25.6618 158.41 24.9439 158.45 24.2967C158.47 23.9428 158.47 23.6091 158.45 23.3058C158.45 23.1035 158.43 22.9215 158.399 22.7496C158.379 22.6182 158.359 22.4968 158.329 22.3856C158.288 22.244 158.248 22.1227 158.197 22.0216C158.116 21.8598 158.025 21.7587 157.914 21.698C157.843 21.6576 157.772 21.6475 157.702 21.6475C157.57 21.6475 157.429 21.698 157.287 21.7991H157.297Z" fill="#4A6388"/>
<path d="M208.2 4.83166C208.291 5.04401 208.432 5.26646 208.594 5.48892C208.917 5.93383 209.373 6.37874 209.929 6.78321C210.859 7.46069 212.082 8.02694 213.478 8.32018C213.872 8.37074 214.833 8.49208 215.581 8.18873C215.854 8.0775 216.097 7.91571 216.269 7.68315C216.299 7.6427 216.329 7.59214 216.36 7.55169C216.42 7.45058 216.461 7.34946 216.491 7.24834C216.552 7.07645 216.572 6.89444 216.562 6.70232C216.562 6.4293 216.461 6.14618 216.319 5.86305C216.218 5.66082 216.087 5.45858 215.925 5.25635C215.884 5.20579 215.844 5.15523 215.804 5.10468C215.622 4.89233 215.409 4.67999 215.177 4.47775C215.136 4.44742 215.096 4.41708 215.065 4.37664C214.863 4.21485 214.651 4.05306 214.418 3.90139C213.741 3.45648 212.972 3.08234 212.184 2.84978C211.84 2.74866 211.486 2.66777 211.142 2.61721C210.98 2.59699 210.818 2.57676 210.657 2.56665C210.495 2.56665 210.323 2.56665 210.171 2.56665H209.989C209.696 2.58687 209.413 2.63743 209.15 2.71833H209.12C209.12 2.71833 209.049 2.73855 209.008 2.75877C208.847 2.81944 208.644 2.92056 208.503 3.02167C208.422 3.08234 208.361 3.14301 208.301 3.2138C208.24 3.28458 208.179 3.36547 208.139 3.44636C208.007 3.70927 207.977 4.01262 208.038 4.3463C208.068 4.49798 208.119 4.65976 208.189 4.83166H208.2Z" fill="#4A6388"/>
<path d="M206.046 4.15438C206.217 3.76003 206.268 3.3859 206.197 3.05221C206.197 3.00165 206.177 2.96121 206.157 2.91065C206.066 2.61741 205.894 2.35451 205.661 2.11183C205.318 1.76803 204.842 1.46468 204.266 1.21189C203.477 0.868094 202.517 0.625414 201.485 0.473739C201.182 0.433293 200.868 0.402958 200.565 0.372623C198.947 0.251283 197.248 0.372623 195.883 0.7872C195.782 0.817535 195.671 0.84787 195.57 0.888317C195.54 0.888317 195.519 0.90854 195.489 0.918652C195.176 1.02988 194.791 1.19167 194.437 1.41412C194.245 1.53546 194.053 1.66691 193.891 1.81859C193.861 1.83881 193.841 1.86915 193.81 1.89948C193.639 2.07138 193.497 2.25339 193.396 2.4354C193.325 2.56685 193.275 2.6983 193.244 2.82975C193.214 2.97132 193.194 3.11288 193.204 3.25444C193.204 3.37578 193.234 3.50723 193.275 3.62857C193.366 3.95215 193.568 4.26561 193.851 4.56896C194.144 4.87231 194.539 5.16555 195.014 5.42845C195.529 5.71158 196.146 5.96437 196.874 6.1666C197.42 6.31827 198.017 6.44973 198.664 6.54073C198.897 6.57107 199.139 6.6014 199.382 6.63174C199.928 6.65196 200.424 6.64185 200.889 6.62162C201.95 6.56095 202.8 6.37894 203.477 6.14638C204.124 5.92392 204.61 5.65091 204.974 5.388C205.166 5.24644 205.328 5.10488 205.459 4.97342C205.56 4.87231 205.641 4.7813 205.712 4.6903C205.864 4.49818 205.955 4.33639 205.995 4.24539C205.995 4.21505 206.015 4.19483 206.025 4.1746L206.046 4.15438Z" fill="#4A6388"/>
<path d="M191.393 1.79822C191.413 1.6971 191.433 1.59599 191.433 1.50498V1.38364C191.413 1.19152 191.352 1.01962 191.241 0.867946C190.998 0.534262 190.543 0.291582 189.937 0.150019C189.158 -0.021879 188.137 -0.0421023 187.004 0.0691259C186.539 0.119684 186.054 0.190466 185.558 0.281471C184.487 0.483704 183.364 0.797165 182.292 1.20163C181.655 1.44431 181.039 1.70721 180.462 2.01056C180.027 2.23302 179.643 2.45548 179.32 2.67793C178.753 3.05206 178.349 3.39586 178.045 3.6891C177.884 3.85088 177.752 4.01267 177.651 4.14412C177.56 4.26546 177.479 4.3868 177.408 4.50814C177.348 4.61937 177.297 4.7306 177.257 4.84183C177.257 4.87216 177.237 4.89238 177.226 4.92272C177.135 5.18562 177.115 5.45864 177.166 5.70132C177.196 5.84288 177.247 5.97433 177.328 6.09567C177.449 6.28779 177.621 6.45969 177.874 6.60125C177.904 6.62148 177.944 6.6417 177.985 6.66192C178.248 6.80349 178.581 6.91471 178.986 6.99561C179.047 7.00572 179.097 7.01583 179.158 7.02594C179.411 7.06639 179.694 7.09672 180.007 7.11695C180.634 7.14728 181.382 7.11695 182.262 7.01583C182.313 7.01583 182.363 6.99561 182.424 6.9855C183.051 6.87427 183.637 6.74282 184.193 6.59114C185.002 6.3788 185.751 6.11589 186.418 5.84288L186.468 5.82266C187.035 5.59009 187.55 5.32718 188.026 5.06428C188.642 4.72049 189.168 4.35647 189.613 4.00256C189.613 4.00256 189.644 3.98234 189.654 3.97222C189.947 3.72954 190.21 3.49698 190.432 3.26441C190.634 3.05206 190.806 2.85994 190.938 2.66782C191.029 2.54648 191.11 2.42514 191.17 2.3038C191.231 2.20268 191.282 2.09146 191.322 2.00045C191.352 1.91956 191.373 1.84878 191.393 1.77799V1.79822Z" fill="#4A6388"/>
<path d="M163.705 12.0213C163.675 12.1224 163.654 12.2336 163.654 12.3549C163.654 12.4055 163.654 12.4561 163.675 12.5066C163.715 12.6583 163.826 12.7796 164.059 12.81C164.2 12.8302 164.382 12.8201 164.625 12.7695C164.787 12.7392 164.979 12.6785 165.191 12.6077C165.636 12.4561 166.213 12.2033 166.941 11.8089C168.053 11.1719 169.125 10.4641 170.136 9.72592C170.955 9.12933 171.723 8.51252 172.421 7.91593C172.997 7.42046 173.523 6.9351 173.999 6.45986C174.363 6.09584 174.696 5.75204 174.979 5.42847C175.404 4.95322 175.738 4.51842 175.97 4.1544C175.97 4.14429 175.991 4.12407 176.001 4.11395C176.152 3.86116 176.264 3.64882 176.314 3.47692C176.334 3.41625 176.344 3.35558 176.355 3.29491C176.355 3.22413 176.355 3.16346 176.334 3.1129C176.274 2.93089 176.071 2.85 175.768 2.87022C175.151 2.90056 174.079 3.31513 172.815 4.00273C171.39 4.77121 169.711 5.87338 168.124 7.13734C167.891 7.32946 167.659 7.51147 167.426 7.7137C166.334 8.63386 165.424 9.5338 164.767 10.3225L164.746 10.3427C164.706 10.3933 164.655 10.454 164.615 10.5045C164.21 11 163.927 11.4449 163.776 11.8089C163.745 11.8797 163.725 11.9404 163.705 12.001V12.0213Z" fill="#4A6388"/>
</svg>
